<svg id="svg" version="1.1" xmlns="http://www.w3.org/2000/svg" xmlns:xlink="http://www.w3.org/1999/xlink" width="400" height="118.66666666666667" viewBox="0, 0, 400,118.66666666666667"><g id="svgg"><path id="path0" d="M6.167 0.398 C 6.167 0.666,6.256 0.789,6.440 0.773 C 6.591 0.760,6.747 0.862,6.786 1.000 C 6.837 1.175,6.816 1.190,6.717 1.050 C 6.623 0.919,6.491 0.904,6.329 1.006 C 5.970 1.233,5.831 1.201,5.940 0.917 C 5.992 0.779,5.953 0.667,5.851 0.667 C 5.551 0.667,5.641 1.334,5.958 1.464 C 6.119 1.530,6.273 1.690,6.301 1.820 C 6.341 2.005,6.301 2.014,6.119 1.863 C 5.991 1.757,5.825 1.725,5.750 1.793 C 5.675 1.861,5.674 1.811,5.749 1.683 C 5.850 1.509,5.824 1.486,5.651 1.594 C 5.522 1.674,5.244 1.717,5.034 1.690 C 4.678 1.644,4.657 1.689,4.733 2.320 C 4.778 2.694,4.744 3.000,4.657 3.000 C 4.571 3.000,4.500 2.887,4.500 2.750 C 4.500 2.462,4.238 2.416,4.077 2.677 C 4.017 2.774,3.798 2.831,3.591 2.804 C 3.151 2.746,2.620 3.124,2.779 3.381 C 2.847 3.490,2.784 3.517,2.616 3.452 C 2.466 3.395,2.301 3.417,2.248 3.502 C 2.196 3.588,2.417 3.647,2.741 3.635 C 3.210 3.617,3.292 3.568,3.146 3.392 C 2.949 3.155,3.007 3.117,3.860 2.931 C 4.300 2.835,4.308 2.851,4.179 3.479 C 4.172 3.513,4.066 3.457,3.943 3.355 C 3.652 3.114,3.447 3.319,3.689 3.610 C 3.836 3.788,3.777 3.834,3.395 3.836 C 3.064 3.838,2.986 3.882,3.142 3.982 C 3.291 4.075,3.167 4.118,2.784 4.104 C 2.462 4.093,2.234 4.027,2.276 3.958 C 2.318 3.890,2.274 3.833,2.177 3.833 C 1.895 3.833,1.973 4.287,2.274 4.403 C 2.424 4.461,2.500 4.555,2.442 4.614 C 2.384 4.672,2.417 4.817,2.516 4.936 C 2.703 5.161,2.571 5.156,1.733 4.910 C 1.299 4.783,0.775 5.260,0.886 5.684 C 0.929 5.849,0.879 6.019,0.774 6.062 C 0.669 6.105,0.757 6.146,0.968 6.154 C 1.180 6.161,1.325 6.110,1.291 6.042 C 1.145 5.749,1.974 5.185,2.182 5.435 C 2.341 5.627,2.331 5.655,2.134 5.580 C 1.998 5.527,1.782 5.612,1.653 5.766 C 1.442 6.021,1.460 6.038,1.835 5.942 C 2.211 5.846,2.207 5.857,1.788 6.053 C 1.533 6.172,1.375 6.320,1.436 6.381 C 1.498 6.442,1.453 6.606,1.337 6.746 C 1.221 6.886,1.191 7.002,1.271 7.005 C 1.351 7.008,1.280 7.114,1.114 7.240 C 0.947 7.366,0.816 7.514,0.822 7.568 C 0.859 7.895,0.791 7.946,0.417 7.874 L 0.000 7.794 0.000 58.647 C 0.000 109.389,0.001 109.500,0.333 109.500 C 0.794 109.500,0.755 109.829,0.292 109.850 C -0.068 109.866,-0.066 109.872,0.333 110.000 C 0.733 110.128,0.735 110.134,0.375 110.150 C 0.169 110.159,0.000 110.247,0.000 110.345 C 0.000 110.443,0.199 110.500,0.442 110.470 C 0.743 110.434,0.896 110.500,0.922 110.677 C 0.952 110.873,0.834 110.925,0.439 110.889 C -0.048 110.845,-0.055 110.851,0.333 110.987 L 0.750 111.133 0.333 111.167 C -0.017 111.196,0.015 111.227,0.531 111.365 C 0.992 111.487,1.120 111.594,1.044 111.793 C 0.965 111.997,1.015 112.032,1.263 111.945 C 1.555 111.842,1.559 111.852,1.303 112.052 C 0.656 112.556,0.862 113.833,1.590 113.833 C 1.841 113.833,2.817 114.329,2.583 114.338 C 2.492 114.341,2.542 114.439,2.696 114.556 C 2.953 114.752,2.946 114.787,2.613 114.994 C 2.295 115.192,2.276 115.189,2.454 114.973 C 2.611 114.783,2.613 114.680,2.463 114.529 C 2.194 114.261,2.000 114.283,2.000 114.583 C 2.000 114.721,2.075 114.833,2.167 114.833 C 2.258 114.833,2.324 114.890,2.314 114.958 C 2.262 115.282,2.363 115.329,2.708 115.145 C 3.036 114.971,3.057 114.977,2.876 115.197 C 2.596 115.536,3.125 116.067,3.504 115.827 C 3.738 115.679,3.718 115.652,3.333 115.604 C 3.242 115.593,3.167 115.527,3.167 115.458 C 3.167 115.390,3.167 115.267,3.167 115.186 C 3.167 115.105,3.318 114.999,3.504 114.951 C 3.705 114.898,3.832 114.941,3.818 115.056 C 3.768 115.461,3.839 115.683,3.988 115.590 C 4.074 115.538,4.192 115.573,4.251 115.668 C 4.310 115.764,4.264 115.821,4.148 115.796 C 4.026 115.769,3.921 115.942,3.896 116.208 C 3.872 116.460,3.924 116.667,4.010 116.667 C 4.096 116.667,4.175 116.498,4.186 116.292 C 4.201 116.009,4.224 115.989,4.282 116.208 C 4.323 116.369,4.462 116.500,4.590 116.500 C 4.729 116.500,4.784 116.601,4.727 116.750 C 4.674 116.888,4.713 117.000,4.814 117.000 C 4.914 117.000,4.978 117.169,4.956 117.375 C 4.925 117.674,4.993 117.742,5.292 117.710 C 5.498 117.688,5.667 117.745,5.667 117.835 C 5.667 117.926,5.817 118.000,6.000 118.000 C 6.222 118.000,6.333 118.111,6.333 118.333 C 6.333 118.517,6.408 118.667,6.500 118.667 C 6.592 118.667,6.667 118.517,6.667 118.333 C 6.667 118.150,6.742 118.000,6.833 118.000 C 6.925 118.000,7.000 118.150,7.000 118.333 C 7.000 118.517,7.075 118.667,7.167 118.667 C 7.258 118.667,7.333 118.479,7.333 118.250 C 7.333 118.021,7.398 117.833,7.477 117.833 C 7.556 117.833,7.585 118.021,7.541 118.250 C 7.497 118.480,7.539 118.667,7.636 118.667 C 7.732 118.667,7.842 118.460,7.881 118.208 L 7.950 117.750 7.992 118.250 C 8.033 118.746,8.034 118.747,8.167 118.333 C 8.295 117.934,8.301 117.932,8.317 118.292 C 8.327 118.519,8.439 118.667,8.603 118.667 C 8.799 118.667,8.851 118.555,8.794 118.255 C 8.750 118.029,8.779 117.883,8.857 117.932 C 8.936 117.980,9.000 118.165,9.000 118.343 C 9.000 118.663,11.048 118.667,200.072 118.667 L 391.143 118.667 391.216 118.292 L 391.288 117.917 391.311 118.292 C 391.328 118.571,391.436 118.667,391.738 118.667 C 392.026 118.667,392.164 118.558,392.216 118.292 L 392.288 117.917 392.311 118.292 C 392.326 118.543,392.439 118.667,392.655 118.667 C 392.856 118.667,393.004 118.526,393.049 118.292 L 393.121 117.917 393.144 118.292 C 393.177 118.838,393.833 118.814,393.833 118.266 C 393.833 117.956,393.904 117.883,394.145 117.946 C 394.520 118.044,395.362 117.267,395.322 116.860 C 395.271 116.338,395.334 116.147,395.518 116.261 C 395.646 116.340,395.634 116.418,395.476 116.518 C 395.295 116.633,395.302 116.662,395.514 116.664 C 395.948 116.668,396.018 116.465,395.709 116.100 C 395.431 115.773,395.431 115.767,395.708 115.982 C 396.008 116.214,396.051 116.159,396.021 115.583 C 396.005 115.279,396.017 115.282,396.160 115.618 C 396.246 115.820,396.287 116.144,396.249 116.337 C 396.206 116.562,396.254 116.663,396.382 116.616 C 396.493 116.575,396.565 116.460,396.544 116.360 C 396.522 116.260,396.600 116.216,396.718 116.261 C 396.995 116.367,397.737 115.582,397.588 115.342 C 397.526 115.241,397.565 115.179,397.675 115.204 C 397.785 115.229,397.913 115.146,397.959 115.018 C 398.006 114.888,397.969 114.833,397.872 114.893 C 397.778 114.951,397.660 114.888,397.608 114.754 C 397.557 114.620,397.598 114.459,397.700 114.396 C 397.820 114.322,397.837 114.359,397.750 114.500 C 397.661 114.644,397.680 114.678,397.808 114.599 C 397.913 114.534,398.000 114.372,398.000 114.240 C 398.000 114.108,398.109 114.000,398.242 114.000 C 398.638 114.000,399.371 113.161,399.279 112.812 C 399.216 112.571,399.289 112.500,399.599 112.500 C 399.889 112.500,400.000 112.408,400.000 112.167 C 400.000 111.924,399.889 111.833,399.593 111.833 C 399.369 111.833,399.148 111.772,399.102 111.697 C 399.056 111.622,399.239 111.593,399.509 111.632 C 399.802 111.675,400.000 111.630,400.000 111.519 C 400.000 111.417,399.815 111.333,399.589 111.333 C 399.291 111.333,399.204 111.264,399.273 111.083 C 399.326 110.946,399.511 110.833,399.684 110.833 C 399.993 110.833,400.000 109.758,400.000 59.678 L 400.000 8.523 399.625 8.451 L 399.250 8.379 399.625 8.356 C 399.831 8.344,400.000 8.226,400.000 8.095 C 400.000 7.964,399.831 7.824,399.625 7.784 L 399.250 7.712 399.625 7.689 C 399.850 7.676,400.000 7.559,400.000 7.397 C 400.000 7.200,399.889 7.149,399.587 7.207 C 399.171 7.286,398.857 6.866,399.072 6.518 C 399.124 6.434,398.932 6.284,398.645 6.184 C 398.181 6.022,398.148 5.970,398.349 5.710 C 398.472 5.548,398.379 5.589,398.141 5.801 L 397.709 6.185 397.791 5.759 C 397.836 5.525,397.937 5.333,398.015 5.333 C 398.198 5.333,398.010 4.304,397.787 4.083 C 397.673 3.971,397.661 3.993,397.751 4.151 C 397.839 4.304,397.821 4.345,397.700 4.270 C 397.598 4.207,397.557 4.046,397.608 3.912 C 397.660 3.778,397.778 3.716,397.872 3.774 C 397.969 3.834,398.006 3.779,397.959 3.648 C 397.913 3.521,397.785 3.437,397.675 3.462 C 397.565 3.488,397.526 3.426,397.588 3.325 C 397.737 3.084,396.995 2.300,396.718 2.406 C 396.600 2.451,396.522 2.406,396.544 2.307 C 396.565 2.207,396.479 2.087,396.352 2.041 C 396.221 1.994,396.166 2.031,396.226 2.128 C 396.284 2.222,396.222 2.340,396.088 2.392 C 395.954 2.443,395.793 2.402,395.730 2.300 C 395.655 2.180,395.692 2.163,395.833 2.250 C 395.978 2.339,396.011 2.320,395.933 2.192 C 395.867 2.087,395.663 2.000,395.479 2.000 C 394.965 2.000,394.514 1.698,394.158 1.114 C 393.980 0.822,393.834 0.660,393.834 0.755 C 393.834 0.849,393.947 1.088,394.085 1.285 C 394.249 1.520,394.277 1.682,394.164 1.752 C 394.069 1.810,393.911 1.629,393.813 1.346 C 393.715 1.064,393.566 0.876,393.482 0.928 C 393.134 1.143,392.714 0.829,392.793 0.413 C 392.837 0.186,392.798 0.000,392.707 0.000 C 392.616 0.000,392.495 0.234,392.438 0.520 C 392.321 1.101,391.833 0.934,391.833 0.313 C 391.833 0.007,387.565 0.000,200.595 0.000 L 9.357 0.000 9.284 0.375 L 9.212 0.750 9.189 0.375 C 9.155 -0.185,7.892 -0.185,7.784 0.375 L 7.712 0.750 7.689 0.375 C 7.658 -0.137,7.050 -0.137,6.951 0.375 L 6.879 0.750 6.856 0.375 C 6.823 -0.169,6.167 -0.147,6.167 0.398 M393.333 0.333 C 393.333 0.517,393.408 0.667,393.500 0.667 C 393.592 0.667,393.667 0.517,393.667 0.333 C 393.667 0.150,393.592 0.000,393.500 0.000 C 393.408 0.000,393.333 0.150,393.333 0.333 M394.521 0.949 C 394.677 1.140,394.683 1.191,394.542 1.105 C 394.276 0.946,394.270 1.203,394.533 1.467 C 394.797 1.730,395.054 1.724,394.895 1.458 C 394.809 1.317,394.860 1.323,395.051 1.479 C 395.456 1.807,395.414 1.414,395.000 1.000 C 394.586 0.586,394.193 0.544,394.521 0.949 M4.908 1.015 C 4.736 1.292,5.122 1.611,5.352 1.381 C 5.544 1.189,5.424 0.833,5.167 0.833 C 5.086 0.833,4.969 0.915,4.908 1.015 M394.650 1.897 C 394.805 2.083,394.745 2.142,394.338 2.202 C 393.859 2.272,393.848 2.260,394.110 1.971 C 394.439 1.607,394.413 1.610,394.650 1.897 M5.889 2.052 C 5.996 1.988,5.977 2.066,5.848 2.226 C 5.597 2.535,5.248 2.272,5.458 1.933 C 5.522 1.830,5.587 1.843,5.628 1.968 C 5.665 2.078,5.782 2.116,5.889 2.052 M3.549 2.241 C 3.392 2.420,3.392 2.486,3.549 2.544 C 3.855 2.656,4.167 2.500,4.167 2.236 C 4.167 1.938,3.813 1.941,3.549 2.241 M391.333 2.179 C 391.952 2.394,392.333 2.703,392.333 2.988 C 392.333 3.301,392.641 3.500,393.126 3.500 C 393.498 3.500,394.000 3.993,394.000 4.359 C 394.000 4.623,394.256 4.747,394.688 4.693 C 394.817 4.677,395.305 5.202,395.321 5.375 C 395.328 5.444,395.333 5.607,395.333 5.737 C 395.333 5.867,395.555 6.022,395.826 6.082 C 396.305 6.187,396.364 6.276,396.564 7.180 C 396.616 7.416,396.841 7.692,397.063 7.794 C 397.965 8.205,397.917 5.300,397.917 59.333 C 397.917 114.245,397.982 110.528,397.012 110.782 C 396.810 110.835,396.646 111.067,396.580 111.392 C 396.378 112.402,396.318 112.500,395.900 112.500 C 395.508 112.500,395.351 112.680,395.272 113.220 C 395.226 113.530,394.831 114.016,394.689 113.936 C 394.440 113.793,393.917 114.146,393.831 114.515 C 393.763 114.807,393.547 114.978,393.035 115.141 C 392.629 115.271,392.333 115.468,392.333 115.611 C 392.333 116.130,391.972 116.303,390.417 116.525 C 388.006 116.870,9.276 116.610,8.746 116.263 C 8.477 116.086,8.142 115.804,8.003 115.636 C 7.864 115.468,7.413 115.234,7.000 115.116 C 6.366 114.935,6.238 114.826,6.166 114.409 C 6.094 113.996,5.987 113.903,5.499 113.833 C 4.982 113.759,4.907 113.685,4.833 113.169 C 4.774 112.756,4.653 112.569,4.417 112.526 C 3.897 112.430,3.684 112.183,3.485 111.444 C 3.384 111.069,3.171 110.646,3.012 110.506 C 2.853 110.365,2.579 110.028,2.403 109.757 C 2.026 109.176,1.811 10.990,2.184 9.583 C 2.281 9.217,2.400 8.711,2.449 8.460 C 2.498 8.209,2.597 8.040,2.670 8.086 C 2.987 8.281,3.342 7.920,3.441 7.304 C 3.558 6.567,3.871 6.167,4.329 6.167 C 4.542 6.167,4.677 5.985,4.776 5.563 C 4.892 5.074,5.028 4.924,5.494 4.771 C 5.884 4.644,6.100 4.454,6.164 4.182 C 6.266 3.745,6.505 3.571,7.208 3.423 C 7.569 3.348,7.667 3.233,7.667 2.886 C 7.667 2.643,7.714 2.492,7.772 2.550 C 7.830 2.608,8.036 2.567,8.230 2.460 C 8.424 2.353,8.921 2.215,9.333 2.155 C 10.208 2.025,390.961 2.050,391.333 2.179 M397.076 2.992 C 397.321 3.263,397.342 3.423,397.202 3.950 C 397.090 4.372,397.029 4.458,397.017 4.208 C 397.008 4.002,396.922 3.833,396.827 3.833 C 396.711 3.833,396.709 3.733,396.822 3.522 C 397.035 3.123,396.877 2.965,396.478 3.178 C 396.267 3.291,396.167 3.289,396.167 3.173 C 396.167 3.078,395.998 2.993,395.792 2.983 C 395.432 2.967,395.434 2.961,395.833 2.833 C 396.512 2.616,396.765 2.648,397.076 2.992 M398.521 4.949 C 398.647 5.104,398.664 5.179,398.559 5.116 C 398.454 5.053,398.326 5.113,398.273 5.249 C 398.220 5.388,398.264 5.479,398.373 5.456 C 398.481 5.435,398.572 5.513,398.576 5.631 C 398.584 5.859,398.973 6.164,399.250 6.158 C 399.342 6.156,399.229 6.048,399.000 5.917 C 398.771 5.786,398.682 5.676,398.802 5.673 C 398.931 5.669,398.969 5.582,398.895 5.458 C 398.809 5.317,398.860 5.323,399.051 5.479 C 399.456 5.807,399.414 5.414,399.000 5.000 C 398.586 4.586,398.193 4.544,398.521 4.949 M1.416 5.334 C 1.249 5.518,1.077 5.633,1.033 5.588 C 0.921 5.476,1.337 5.000,1.546 5.000 C 1.641 5.000,1.582 5.150,1.416 5.334 M0.772 6.536 C 0.817 6.608,0.661 6.667,0.427 6.667 C 0.192 6.667,0.000 6.742,0.000 6.833 C 0.000 6.925,0.106 7.000,0.236 7.000 C 0.366 7.000,0.604 7.051,0.765 7.112 C 0.991 7.199,1.033 7.161,0.951 6.946 C 0.881 6.763,0.928 6.667,1.089 6.667 C 1.223 6.667,1.333 6.608,1.333 6.536 C 1.333 6.464,1.189 6.405,1.012 6.405 C 0.836 6.405,0.728 6.464,0.772 6.536 M399.333 6.500 C 399.333 6.592,399.483 6.667,399.667 6.667 C 399.850 6.667,400.000 6.592,400.000 6.500 C 400.000 6.408,399.850 6.333,399.667 6.333 C 399.483 6.333,399.333 6.408,399.333 6.500 M166.083 32.154 C 165.451 32.307,164.905 32.605,163.982 33.304 C 163.129 33.949,163.085 34.018,162.469 35.667 L 162.001 36.917 162.001 53.325 L 162.000 69.733 162.515 71.098 C 164.372 76.017,171.390 76.082,173.523 71.200 L 174.083 69.917 174.083 53.333 L 174.083 36.750 173.500 35.394 C 172.295 32.593,169.441 31.347,166.083 32.154 M184.601 38.463 C 179.494 40.213,179.327 47.287,184.341 49.509 C 189.212 51.667,194.275 46.825,192.275 41.920 C 190.938 38.642,187.973 37.307,184.601 38.463 M203.263 38.468 C 201.431 39.084,200.440 40.072,199.787 41.934 L 199.325 43.254 199.371 58.502 L 199.417 73.750 199.929 75.111 C 201.042 78.064,203.828 80.397,206.967 81.004 C 207.607 81.127,210.775 81.170,216.667 81.135 L 225.417 81.083 226.407 80.583 C 230.396 78.570,231.236 73.777,228.131 70.746 C 226.596 69.248,226.693 69.265,219.333 69.210 C 215.804 69.183,212.749 69.124,212.544 69.078 C 211.559 68.858,211.591 69.269,211.500 55.591 L 211.417 43.083 210.865 41.755 C 209.594 38.692,206.532 37.368,203.263 38.468 M147.833 44.384 C 146.057 44.897,144.516 46.255,143.930 47.823 C 143.172 49.850,143.169 49.907,143.168 58.967 C 143.167 68.191,143.169 68.161,142.392 68.863 C 142.117 69.112,141.373 69.149,135.500 69.200 C 128.012 69.265,128.067 69.256,126.645 70.656 C 123.192 74.056,124.828 79.982,129.495 80.983 C 130.635 81.228,146.571 81.235,147.889 80.991 C 150.715 80.469,153.752 78.101,154.557 75.794 C 154.790 75.128,155.115 74.246,155.281 73.833 C 155.563 73.134,155.583 72.285,155.583 61.250 L 155.583 49.417 154.936 47.952 C 153.674 45.098,150.640 43.574,147.833 44.384 M314.500 46.622 C 312.318 46.881,312.479 50.086,314.690 50.417 C 316.803 50.733,317.818 47.793,315.915 46.868 C 315.499 46.666,315.141 46.512,315.121 46.527 C 315.100 46.541,314.821 46.584,314.500 46.622 M265.341 48.176 C 264.294 48.411,264.332 48.039,264.350 57.824 C 264.369 67.863,264.337 67.517,265.251 67.707 C 267.132 68.098,267.170 67.905,267.154 57.950 C 267.139 47.918,267.113 47.779,265.341 48.176 M326.865 48.338 C 326.168 48.762,326.127 49.337,326.202 57.667 L 326.264 64.583 326.696 65.417 C 327.694 67.345,329.237 67.836,334.282 67.830 C 340.451 67.823,341.462 66.997,341.622 61.833 L 341.702 59.250 341.276 58.792 C 340.850 58.334,340.331 58.227,339.555 58.435 C 339.031 58.575,338.868 59.182,338.782 61.310 C 338.655 64.452,338.084 64.853,333.833 64.791 C 328.836 64.717,329.022 65.041,329.009 56.398 C 328.998 48.477,329.011 48.592,328.079 48.274 C 327.429 48.053,327.326 48.058,326.865 48.338 M257.258 50.532 C 255.056 51.012,255.563 54.333,257.838 54.333 C 258.337 54.333,259.356 53.580,259.682 52.971 C 260.375 51.676,258.886 50.177,257.258 50.532 M293.044 51.954 C 291.498 52.146,291.628 54.547,293.200 54.843 C 294.356 55.061,295.237 54.405,295.125 53.412 C 295.039 52.652,294.346 51.821,293.833 51.865 C 293.696 51.877,293.341 51.917,293.044 51.954 M286.884 52.375 C 285.908 53.451,286.547 54.833,288.022 54.833 C 289.394 54.833,290.010 53.358,289.072 52.320 C 288.640 51.843,287.338 51.876,286.884 52.375 M313.250 53.239 C 309.749 54.430,308.958 59.762,311.980 61.799 C 312.760 62.324,312.881 62.352,314.835 62.450 C 317.297 62.574,317.983 62.909,317.448 63.726 C 316.781 64.743,316.738 64.750,311.244 64.750 L 306.224 64.750 305.403 64.246 C 304.251 63.538,304.001 62.960,304.000 61.000 C 303.998 58.903,303.700 58.333,302.601 58.333 C 301.393 58.333,301.000 58.947,301.000 60.832 C 301.000 64.715,300.736 64.824,291.282 64.829 C 281.575 64.835,281.333 64.733,281.333 60.615 C 281.333 58.816,281.032 58.333,279.909 58.333 C 278.796 58.333,278.667 58.703,278.667 61.879 C 278.667 65.005,278.842 65.658,279.922 66.561 C 281.416 67.810,280.849 67.750,291.167 67.750 L 300.417 67.750 301.118 67.375 C 301.945 66.933,303.273 66.874,303.994 67.247 C 305.349 67.948,316.131 68.082,317.353 67.414 C 319.668 66.147,319.510 66.301,320.097 64.733 C 320.778 62.918,320.875 62.375,320.886 60.333 C 320.915 54.895,317.555 51.774,313.250 53.239 M361.681 53.732 C 360.770 54.831,361.067 55.350,364.899 59.361 C 369.487 64.162,369.139 64.833,362.061 64.833 C 356.839 64.833,355.977 65.155,356.812 66.791 C 357.322 67.791,357.535 67.833,362.101 67.833 C 366.720 67.833,368.371 67.657,369.000 67.098 C 369.229 66.894,369.616 66.604,369.860 66.453 C 370.880 65.822,371.099 63.382,370.292 61.644 C 369.917 60.837,367.532 58.060,365.167 55.676 C 364.479 54.983,363.803 54.241,363.663 54.026 C 363.332 53.515,362.023 53.321,361.681 53.732 M315.886 56.020 C 317.491 56.845,318.005 58.315,317.055 59.364 C 316.436 60.048,314.050 59.563,313.185 58.578 C 311.933 57.153,314.098 55.102,315.886 56.020 M184.500 57.108 C 182.733 57.835,181.871 58.701,181.120 60.502 L 180.599 61.750 180.506 71.083 C 180.456 76.217,180.357 80.531,180.287 80.670 C 179.927 81.390,179.718 81.413,172.826 81.500 L 166.236 81.583 165.326 82.137 C 161.515 84.454,160.857 89.253,163.979 91.968 C 165.580 93.361,165.345 93.334,175.905 93.330 C 186.406 93.327,186.579 93.311,188.333 92.140 C 190.374 90.778,191.283 89.654,192.153 87.421 L 192.739 85.917 192.791 73.950 L 192.844 61.982 192.271 60.577 C 190.910 57.238,187.683 55.797,184.500 57.108 M256.815 58.444 C 256.244 58.596,256.167 59.254,256.167 63.981 C 256.167 71.058,255.551 72.124,251.257 72.484 C 248.946 72.678,248.359 73.263,249.007 74.727 C 249.423 75.668,249.613 75.727,251.878 75.634 C 254.100 75.542,255.909 74.693,257.117 73.175 C 258.799 71.061,259.000 70.075,259.000 63.955 L 259.000 59.215 258.591 58.774 C 258.195 58.347,257.595 58.235,256.815 58.444 M349.431 58.846 L 349.000 59.359 348.998 64.138 C 348.996 70.882,348.459 71.925,344.690 72.500 C 342.991 72.760,342.649 73.202,343.003 74.681 C 343.191 75.465,343.214 75.487,343.939 75.595 C 347.107 76.070,350.694 73.651,351.618 70.417 C 351.876 69.513,352.143 60.260,351.935 59.432 C 351.638 58.247,350.215 57.915,349.431 58.846 M331.917 71.868 C 330.209 72.467,330.419 74.601,332.202 74.777 C 332.902 74.846,334.282 74.280,334.199 73.958 C 334.181 73.890,334.167 73.574,334.167 73.258 C 334.167 72.765,334.061 72.610,333.428 72.175 C 332.616 71.616,332.629 71.618,331.917 71.868 M337.315 71.902 C 335.584 72.423,335.672 74.477,337.438 74.759 C 339.090 75.024,340.071 73.229,338.792 72.283 C 338.019 71.712,337.981 71.702,337.315 71.902 M203.917 87.943 C 202.549 88.237,200.954 89.273,200.381 90.241 C 198.433 93.529,199.321 97.058,202.606 99.083 C 203.716 99.768,206.950 99.846,207.813 99.208 C 208.092 99.002,208.390 98.833,208.475 98.833 C 209.938 98.833,212.159 93.524,211.213 92.290 C 211.126 92.176,210.886 91.624,210.681 91.063 C 209.836 88.748,206.766 87.333,203.917 87.943 M1.736 112.522 C 1.680 112.613,1.767 112.835,1.930 113.014 C 2.302 113.426,2.005 113.857,1.548 113.568 C 1.011 113.230,0.908 112.878,1.238 112.514 C 1.536 112.184,1.941 112.190,1.736 112.522 M1.335 112.581 C 1.093 112.873,1.218 113.299,1.587 113.441 C 1.992 113.597,2.084 113.369,1.760 113.012 C 1.599 112.833,1.517 112.608,1.577 112.511 C 1.740 112.247,1.572 112.296,1.335 112.581 M398.972 112.941 C 398.942 113.016,398.804 113.078,398.667 113.080 C 398.529 113.082,398.415 113.196,398.413 113.333 C 398.412 113.471,398.337 113.583,398.247 113.583 C 398.002 113.583,398.136 113.288,398.531 112.954 C 398.869 112.668,399.087 112.662,398.972 112.941 M397.044 115.697 C 396.756 115.985,396.700 115.994,396.612 115.766 C 396.557 115.622,396.566 115.512,396.631 115.522 C 396.943 115.568,396.997 115.473,396.833 115.167 C 396.712 114.941,396.710 114.833,396.827 114.833 C 396.922 114.833,397.008 114.665,397.017 114.458 C 397.029 114.211,397.092 114.302,397.204 114.725 C 397.351 115.279,397.329 115.411,397.044 115.697 M394.972 116.941 C 394.942 117.016,394.804 117.078,394.667 117.080 C 394.529 117.082,394.415 117.196,394.413 117.333 C 394.412 117.471,394.337 117.583,394.247 117.583 C 394.002 117.583,394.136 117.288,394.531 116.954 C 394.869 116.668,395.087 116.662,394.972 116.941 M5.474 117.516 C 5.190 117.692,4.994 117.543,5.110 117.240 C 5.185 117.045,5.256 117.034,5.444 117.189 C 5.630 117.344,5.637 117.415,5.474 117.516 " stroke="none" fill="#c2c4bd" fill-rule="evenodd"></path><path id="path1" d="M64.710 17.092 C 63.104 17.343,62.304 17.585,61.500 18.067 C 61.179 18.259,60.623 18.567,60.263 18.750 C 59.464 19.157,56.728 21.824,56.066 22.841 C 55.801 23.249,55.340 23.908,55.042 24.304 C 54.744 24.701,54.500 25.100,54.500 25.191 C 54.500 25.282,54.286 25.670,54.024 26.053 C 53.762 26.436,53.454 27.050,53.339 27.417 C 53.224 27.783,52.957 28.399,52.747 28.784 C 52.537 29.170,52.235 29.882,52.076 30.368 C 51.917 30.853,51.583 31.662,51.333 32.167 C 51.084 32.671,50.748 33.496,50.588 34.000 C 50.427 34.504,50.126 35.217,49.919 35.583 C 49.712 35.950,49.421 36.671,49.273 37.187 C 48.860 38.620,48.439 38.801,44.083 39.413 C 35.032 40.683,30.463 41.916,28.062 43.736 C 26.779 44.708,26.577 45.719,27.090 48.583 C 27.222 49.317,27.589 51.867,27.907 54.250 C 28.224 56.633,28.634 59.183,28.817 59.917 C 28.999 60.650,29.271 62.143,29.421 63.235 C 29.570 64.327,29.831 65.570,29.999 65.998 C 30.168 66.425,30.424 67.460,30.568 68.297 C 30.713 69.134,31.014 70.305,31.237 70.898 C 31.460 71.492,31.830 72.680,32.059 73.540 C 32.288 74.399,32.668 75.465,32.904 75.909 C 33.140 76.353,33.333 76.832,33.333 76.973 C 33.333 77.333,35.056 80.960,35.709 81.976 C 36.006 82.439,36.550 83.290,36.917 83.868 C 38.988 87.128,43.288 91.530,46.083 93.253 C 46.358 93.422,46.771 93.729,47.000 93.934 C 47.575 94.449,52.526 96.940,53.750 97.331 C 54.300 97.506,55.200 97.839,55.750 98.071 C 56.300 98.302,56.948 98.494,57.190 98.496 C 57.433 98.498,58.520 98.743,59.607 99.040 L 61.583 99.579 66.750 99.581 C 71.869 99.583,71.930 99.579,73.417 99.137 C 74.242 98.892,75.441 98.606,76.083 98.500 C 76.724 98.395,77.737 98.099,78.333 97.841 C 78.929 97.583,79.717 97.280,80.083 97.166 C 80.450 97.053,81.162 96.750,81.667 96.493 C 82.171 96.236,82.921 95.867,83.333 95.673 C 84.517 95.115,85.898 94.291,86.486 93.792 C 86.783 93.540,87.090 93.333,87.169 93.333 C 87.642 93.333,92.217 89.430,93.166 88.217 C 93.396 87.923,94.041 87.132,94.599 86.458 C 95.158 85.785,95.753 85.012,95.922 84.742 C 96.090 84.471,96.381 84.077,96.568 83.866 C 97.268 83.076,99.456 78.828,100.071 77.066 C 100.292 76.434,100.623 75.542,100.807 75.083 C 101.393 73.626,102.473 70.122,102.681 69.000 C 102.792 68.404,103.020 67.561,103.188 67.126 C 103.357 66.692,103.724 64.967,104.006 63.293 C 104.287 61.619,104.656 59.688,104.826 59.000 C 104.997 58.313,105.221 56.850,105.325 55.750 C 105.428 54.650,105.698 52.775,105.923 51.583 C 106.148 50.392,106.400 48.664,106.483 47.744 C 106.622 46.209,106.610 45.732,106.409 44.730 C 106.302 44.198,104.720 43.095,103.362 42.605 C 102.700 42.366,101.937 42.056,101.667 41.917 C 101.397 41.777,100.293 41.472,99.213 41.239 C 98.133 41.006,96.763 40.674,96.167 40.501 C 95.571 40.329,94.408 40.104,93.583 40.003 C 92.041 39.813,86.550 39.026,85.867 38.896 C 85.194 38.768,84.398 37.820,83.995 36.667 C 83.787 36.071,83.484 35.358,83.322 35.083 C 83.161 34.808,82.866 34.096,82.667 33.500 C 82.468 32.904,82.170 32.192,82.006 31.917 C 81.842 31.642,81.615 31.117,81.503 30.750 C 81.079 29.365,78.727 24.666,77.850 23.451 C 74.920 19.393,72.044 17.478,68.171 17.006 C 66.546 16.807,66.537 16.808,64.710 17.092 M68.690 25.033 C 70.450 25.970,71.735 27.579,73.190 30.667 C 73.471 31.262,73.956 32.283,74.267 32.934 C 74.579 33.585,74.833 34.206,74.833 34.314 C 74.833 34.421,75.062 34.963,75.342 35.517 C 76.580 37.970,75.991 38.583,72.583 38.387 C 70.111 38.245,64.743 38.226,60.569 38.345 C 57.313 38.438,56.828 38.011,57.898 35.999 C 58.117 35.587,58.499 34.661,58.748 33.940 C 58.996 33.220,59.339 32.393,59.510 32.103 C 59.681 31.814,59.931 31.265,60.065 30.885 C 60.569 29.456,62.994 26.143,63.999 25.509 C 66.252 24.089,66.811 24.032,68.690 25.033 " stroke="none" fill="#3db42d" fill-rule="evenodd"></path><path id="path2" d="M3.041 2.431 C 2.343 2.981,1.894 3.722,2.504 3.317 C 2.856 3.083,3.799 1.997,3.646 2.002 C 3.612 2.003,3.339 2.196,3.041 2.431 M397.251 2.668 C 397.417 2.852,397.590 2.966,397.634 2.922 C 397.746 2.810,397.330 2.333,397.120 2.333 C 397.026 2.333,397.085 2.484,397.251 2.668 M11.500 3.569 C 10.996 3.787,10.228 4.091,9.794 4.246 C 8.560 4.684,6.132 6.767,5.565 7.874 C 5.412 8.172,5.070 8.721,4.805 9.094 C 4.426 9.624,4.224 10.256,3.873 12.010 L 3.424 14.250 3.374 58.417 C 3.343 85.749,3.385 103.060,3.483 103.833 C 3.821 106.492,4.344 108.918,4.670 109.333 C 4.850 109.563,5.201 110.087,5.451 110.500 C 6.571 112.346,8.768 113.998,11.247 114.857 L 13.083 115.494 200.011 115.497 L 386.939 115.500 388.718 114.923 C 390.699 114.281,391.006 114.141,391.805 113.517 C 392.718 112.804,394.396 111.105,394.709 110.576 C 394.869 110.305,395.160 109.835,395.354 109.532 C 395.549 109.229,395.905 108.254,396.146 107.366 L 396.583 105.750 396.583 59.250 L 396.583 12.750 396.108 11.083 C 395.573 9.204,395.521 9.090,394.725 8.021 C 393.292 6.098,391.587 4.664,390.083 4.118 C 389.442 3.885,388.638 3.576,388.297 3.431 C 387.733 3.190,370.840 3.167,200.047 3.170 L 12.417 3.173 11.500 3.569 M0.000 6.500 C 0.000 6.592,0.150 6.667,0.333 6.667 C 0.517 6.667,0.667 6.592,0.667 6.500 C 0.667 6.408,0.517 6.333,0.333 6.333 C 0.150 6.333,0.000 6.408,0.000 6.500 M70.417 17.250 C 70.967 17.396,71.679 17.689,72.000 17.900 C 72.321 18.112,72.953 18.495,73.406 18.751 C 74.988 19.647,78.130 23.164,79.002 25.014 C 79.192 25.419,79.490 26.012,79.663 26.333 C 80.343 27.596,81.500 30.144,81.500 30.382 C 81.500 30.520,81.716 31.043,81.979 31.543 C 82.242 32.044,82.591 32.858,82.754 33.352 C 82.918 33.846,83.256 34.662,83.506 35.167 C 83.756 35.671,84.089 36.478,84.245 36.961 C 84.685 38.323,85.247 38.721,87.000 38.913 C 87.596 38.978,88.833 39.169,89.750 39.338 C 90.667 39.508,92.422 39.771,93.651 39.923 C 94.880 40.075,96.188 40.307,96.558 40.437 C 96.929 40.568,98.194 40.897,99.371 41.169 C 100.548 41.441,101.729 41.776,101.995 41.914 C 102.262 42.052,102.953 42.337,103.532 42.547 C 106.849 43.753,107.304 45.475,105.985 51.833 C 105.805 52.704,105.543 54.504,105.403 55.833 C 105.263 57.163,105.008 58.813,104.835 59.500 C 104.662 60.188,104.295 62.063,104.020 63.667 C 103.745 65.271,103.405 66.856,103.265 67.190 C 103.125 67.524,102.858 68.499,102.670 69.357 C 102.483 70.215,102.150 71.404,101.930 72.000 C 101.711 72.596,101.345 73.646,101.117 74.333 C 100.424 76.428,99.704 78.275,99.185 79.287 C 98.914 79.817,98.576 80.512,98.435 80.833 C 98.204 81.360,97.719 82.146,96.264 84.348 C 95.997 84.752,95.360 85.593,94.848 86.215 C 94.336 86.838,93.654 87.670,93.333 88.066 C 92.699 88.849,91.459 90.064,90.311 91.028 C 89.111 92.036,87.617 93.167,87.484 93.167 C 87.415 93.167,87.128 93.361,86.845 93.599 C 86.257 94.094,83.416 95.833,83.196 95.833 C 83.116 95.833,82.570 96.086,81.983 96.394 C 81.397 96.703,80.617 97.049,80.250 97.164 C 79.883 97.279,79.086 97.588,78.478 97.850 C 77.870 98.113,76.633 98.474,75.728 98.652 C 74.824 98.829,73.746 99.106,73.333 99.266 C 72.440 99.613,63.126 99.818,61.500 99.527 C 56.213 98.581,49.208 95.861,46.613 93.747 C 46.322 93.510,45.371 92.778,44.500 92.121 C 41.370 89.758,37.716 85.687,36.240 82.917 C 35.996 82.458,35.631 81.858,35.429 81.583 C 34.969 80.958,33.333 77.494,33.333 77.147 C 33.333 77.005,33.144 76.521,32.912 76.070 C 32.681 75.619,32.300 74.575,32.067 73.750 C 31.833 72.925,31.433 71.650,31.176 70.917 C 30.920 70.183,30.622 69.058,30.513 68.417 C 30.404 67.775,30.140 66.688,29.926 66.000 C 29.712 65.313,29.449 64.075,29.341 63.250 C 29.234 62.425,28.969 61.000,28.753 60.083 C 28.334 58.299,28.169 57.235,27.750 53.611 C 27.603 52.342,27.329 50.580,27.141 49.694 C 26.773 47.960,26.645 45.088,26.917 44.644 C 27.230 44.130,28.875 42.959,29.813 42.581 C 30.328 42.374,31.046 42.076,31.407 41.920 C 32.664 41.375,37.932 40.153,40.417 39.829 C 41.792 39.649,43.517 39.394,44.250 39.261 C 44.983 39.128,46.033 38.968,46.583 38.905 C 48.152 38.725,48.748 38.344,49.095 37.296 C 49.256 36.812,49.637 35.894,49.944 35.255 C 50.250 34.616,50.500 33.997,50.500 33.880 C 50.500 33.763,50.792 33.011,51.149 32.209 C 51.506 31.406,51.852 30.563,51.918 30.333 C 51.984 30.104,52.216 29.579,52.433 29.167 C 52.651 28.754,52.946 28.079,53.088 27.667 C 53.314 27.012,54.269 25.254,54.943 24.250 C 55.067 24.067,55.440 23.504,55.773 23.000 C 56.649 21.675,59.471 18.956,60.529 18.418 C 61.017 18.170,61.701 17.817,62.048 17.633 C 63.534 16.849,68.117 16.639,70.417 17.250 M65.083 25.053 C 64.533 25.353,63.933 25.695,63.750 25.813 C 63.165 26.191,60.167 30.475,60.167 30.934 C 60.167 31.043,59.951 31.542,59.688 32.042 C 59.425 32.542,59.042 33.469,58.836 34.101 C 58.630 34.733,58.283 35.563,58.064 35.946 C 56.888 38.006,57.477 38.431,61.243 38.235 C 64.828 38.050,69.163 38.051,72.535 38.239 C 74.588 38.353,75.209 38.339,75.410 38.172 C 75.773 37.871,75.743 36.543,75.359 35.915 C 75.191 35.639,74.918 35.001,74.753 34.498 C 74.588 33.995,74.172 33.021,73.828 32.333 C 73.485 31.646,73.115 30.803,73.007 30.461 C 72.898 30.118,72.738 29.794,72.651 29.741 C 72.565 29.687,72.315 29.292,72.096 28.863 C 70.346 25.436,67.358 23.813,65.083 25.053 M170.141 31.133 C 170.476 31.307,171.028 31.540,171.367 31.651 C 172.062 31.880,173.551 33.200,173.827 33.833 C 173.927 34.063,174.189 34.498,174.410 34.800 C 175.016 35.631,175.021 35.791,174.967 54.083 C 174.920 70.079,174.899 71.113,174.618 71.583 C 174.120 72.417,173.537 73.236,173.254 73.500 C 173.106 73.637,172.747 73.996,172.457 74.297 C 172.133 74.633,171.599 74.941,171.076 75.093 C 170.607 75.229,169.932 75.489,169.576 75.670 C 168.683 76.126,167.545 76.092,166.195 75.571 C 165.584 75.335,164.875 75.062,164.620 74.965 C 164.366 74.868,163.767 74.422,163.290 73.974 C 162.450 73.186,162.280 72.940,161.464 71.333 L 161.083 70.583 161.033 54.589 C 160.980 37.720,161.047 35.610,161.654 34.843 C 161.840 34.608,162.136 34.105,162.312 33.725 C 162.489 33.344,162.784 32.985,162.968 32.927 C 163.153 32.868,163.420 32.642,163.563 32.424 C 163.711 32.199,164.237 31.873,164.784 31.668 C 165.313 31.470,165.822 31.246,165.915 31.169 C 166.593 30.610,169.092 30.588,170.141 31.133 M189.318 37.434 C 189.601 37.601,189.833 37.792,189.833 37.856 C 189.833 37.921,190.087 38.058,190.398 38.161 C 191.076 38.384,192.043 39.289,192.508 40.134 C 192.694 40.473,193.012 41.012,193.215 41.333 C 193.923 42.454,193.644 47.167,192.870 47.167 C 192.803 47.167,192.574 47.547,192.361 48.011 C 191.971 48.860,191.721 49.084,189.859 50.250 C 187.178 51.928,182.206 50.611,180.910 47.879 C 180.751 47.544,180.486 47.125,180.320 46.947 C 179.474 46.039,179.470 42.021,180.315 41.092 C 180.485 40.904,180.757 40.467,180.917 40.121 C 181.221 39.465,182.556 38.167,182.927 38.167 C 183.045 38.167,183.363 37.980,183.635 37.751 C 184.589 36.948,188.158 36.749,189.318 37.434 M207.903 37.422 C 208.231 37.577,208.500 37.757,208.500 37.820 C 208.500 37.884,208.792 38.065,209.150 38.222 C 210.356 38.755,211.883 40.837,212.167 42.337 C 212.268 42.867,212.333 47.968,212.333 55.284 C 212.333 63.286,212.391 67.464,212.506 67.678 C 212.671 67.987,212.923 68.000,218.798 68.009 C 223.122 68.016,225.066 68.077,225.427 68.218 C 225.708 68.327,226.383 68.589,226.927 68.800 C 231.235 70.468,232.420 76.540,229.085 79.861 C 226.868 82.069,227.073 82.038,215.315 81.953 C 205.708 81.884,205.187 81.843,204.132 81.079 C 203.830 80.860,203.321 80.562,203.000 80.417 C 202.201 80.055,200.039 77.751,199.638 76.833 C 199.457 76.421,199.210 75.971,199.088 75.833 C 198.349 75.001,198.333 74.637,198.337 58.345 C 198.342 42.261,198.359 41.853,199.069 40.920 C 199.280 40.643,199.502 40.257,199.564 40.062 C 199.728 39.543,200.700 38.601,201.429 38.255 C 201.777 38.090,202.212 37.816,202.394 37.646 C 202.576 37.476,202.993 37.293,203.321 37.238 C 203.649 37.184,203.992 37.109,204.083 37.071 C 204.508 36.898,207.348 37.158,207.903 37.422 M152.166 43.749 C 152.578 43.895,153.141 44.227,153.416 44.487 C 153.691 44.747,154.086 45.047,154.292 45.153 C 154.498 45.259,154.873 45.724,155.125 46.186 C 155.377 46.649,155.733 47.302,155.917 47.639 C 156.610 48.911,156.477 74.159,155.770 75.452 C 155.631 75.708,155.431 76.104,155.327 76.333 C 154.654 77.817,154.330 78.286,153.325 79.235 C 152.706 79.819,151.929 80.386,151.600 80.495 C 151.270 80.603,151.000 80.766,151.000 80.856 C 151.000 81.146,149.617 81.636,148.280 81.821 C 146.570 82.056,130.633 82.060,129.186 81.825 C 127.336 81.525,125.837 80.408,124.640 78.439 L 123.917 77.250 123.917 74.971 C 123.917 72.847,123.943 72.659,124.296 72.221 C 124.505 71.962,124.783 71.515,124.915 71.229 C 125.251 70.495,126.639 69.206,127.333 68.981 C 127.654 68.878,128.179 68.633,128.500 68.438 C 129.061 68.097,129.325 68.080,135.472 68.000 C 141.552 67.921,141.872 67.901,142.097 67.593 C 142.294 67.323,142.334 65.759,142.337 58.176 C 142.342 46.939,142.318 47.057,145.184 44.612 C 146.643 43.368,149.940 42.960,152.166 43.749 M316.167 45.829 C 316.579 46.099,317.057 46.418,317.227 46.540 C 318.298 47.298,317.800 50.347,316.508 50.943 C 315.636 51.345,315.597 51.291,317.435 52.250 C 319.218 53.181,320.041 53.886,320.528 54.899 C 320.709 55.275,321.020 55.883,321.220 56.250 C 321.561 56.876,321.583 57.133,321.583 60.500 C 321.583 63.867,321.561 64.124,321.220 64.750 C 321.020 65.117,320.706 65.731,320.522 66.116 C 320.337 66.500,319.976 66.928,319.718 67.067 C 319.461 67.205,319.075 67.508,318.861 67.739 C 318.648 67.970,318.198 68.248,317.861 68.357 C 316.936 68.658,307.573 68.750,305.437 68.479 C 303.295 68.208,301.891 68.206,300.405 68.472 C 298.791 68.761,281.714 68.666,280.807 68.363 C 278.641 67.639,277.849 65.916,277.839 61.905 C 277.830 57.861,278.226 57.059,280.166 57.199 C 281.819 57.318,282.500 58.255,282.500 60.410 C 282.500 61.830,282.755 63.120,283.111 63.500 C 283.491 63.906,299.032 63.873,299.439 63.465 C 299.665 63.240,299.746 62.736,299.832 61.049 C 299.984 58.044,300.417 57.353,302.242 57.202 C 304.127 57.046,305.000 58.103,305.000 60.543 C 305.000 62.072,305.517 63.449,306.158 63.630 C 306.669 63.774,314.608 63.731,315.653 63.579 C 316.829 63.407,316.128 63.173,314.417 63.165 C 311.525 63.153,310.473 62.494,309.390 60.019 C 308.592 58.195,309.615 54.234,311.139 53.250 C 312.652 52.272,313.259 51.891,313.693 51.644 L 314.173 51.372 313.387 50.978 C 310.872 49.716,311.528 46.178,314.405 45.490 C 315.241 45.290,315.382 45.317,316.167 45.829 M266.720 47.170 C 268.273 47.857,268.167 47.071,268.167 57.917 C 268.167 67.273,268.160 67.463,267.826 67.888 C 267.113 68.795,264.942 68.967,264.154 68.179 L 263.667 67.692 263.667 58.005 C 263.667 46.825,263.606 47.226,265.333 46.946 C 265.563 46.909,265.797 46.869,265.854 46.856 C 265.911 46.844,266.301 46.985,266.720 47.170 M328.799 47.294 C 329.831 47.766,329.832 47.778,329.843 55.283 C 329.855 64.373,329.547 63.750,334.035 63.750 C 337.563 63.750,337.825 63.527,337.831 60.519 C 337.836 57.959,338.497 57.091,340.361 57.197 C 342.548 57.320,342.889 57.981,342.795 61.917 C 342.741 64.179,342.682 64.669,342.407 65.146 C 342.229 65.455,341.968 65.927,341.826 66.194 C 341.447 66.909,340.091 68.108,339.375 68.362 C 338.493 68.674,329.731 68.671,328.680 68.358 C 327.896 68.125,326.403 66.982,326.249 66.498 C 326.199 66.338,325.972 65.992,325.745 65.729 C 325.149 65.035,325.147 65.001,325.201 56.226 C 325.256 47.184,325.160 47.817,326.575 47.179 C 327.302 46.852,327.901 46.883,328.799 47.294 M259.339 49.853 C 261.100 50.994,261.046 54.031,259.250 54.909 C 256.182 56.408,253.167 52.754,255.526 50.395 C 256.852 49.069,257.899 48.920,259.339 49.853 M289.330 51.267 C 290.371 52.208,291.098 52.292,291.829 51.556 C 292.970 50.408,293.905 50.354,295.150 51.367 C 295.623 51.752,296.041 52.221,296.079 52.409 C 296.426 54.140,296.356 54.399,295.277 55.382 C 294.102 56.451,292.725 56.446,291.838 55.370 C 291.142 54.526,290.354 54.575,289.485 55.516 C 288.483 56.602,287.441 56.495,286.116 55.170 L 285.120 54.173 285.223 53.295 C 285.312 52.530,285.422 52.327,286.070 51.722 C 287.474 50.411,288.261 50.301,289.330 51.267 M363.701 52.851 C 364.049 53.028,364.333 53.250,364.333 53.344 C 364.333 53.438,364.971 54.135,365.750 54.893 C 366.529 55.652,367.167 56.342,367.167 56.428 C 367.167 56.513,367.429 56.793,367.750 57.049 C 368.071 57.305,368.333 57.623,368.333 57.755 C 368.333 57.887,368.627 58.181,368.987 58.408 C 369.346 58.635,369.689 58.974,369.748 59.161 C 369.807 59.347,370.002 59.578,370.180 59.674 C 370.755 59.982,372.000 62.910,372.000 63.956 C 372.000 66.123,370.104 68.166,367.790 68.494 C 365.729 68.785,357.039 68.665,356.547 68.338 C 355.355 67.548,355.513 64.470,356.770 63.993 C 357.000 63.905,359.194 63.833,361.646 63.833 C 366.902 63.833,366.906 63.832,366.402 62.614 C 366.227 62.191,365.930 61.763,365.741 61.662 C 365.552 61.561,365.259 61.220,365.089 60.906 C 364.920 60.591,364.713 60.333,364.631 60.333 C 364.500 60.333,363.249 59.104,361.831 57.583 C 360.092 55.717,359.786 54.748,360.589 53.659 C 361.608 52.278,362.251 52.111,363.701 52.851 M189.346 56.128 C 189.660 56.326,190.189 56.637,190.522 56.820 C 191.491 57.353,192.144 58.125,193.244 60.038 C 193.760 60.937,193.861 63.706,193.782 74.878 C 193.703 86.096,193.640 87.171,193.008 88.025 C 192.825 88.273,192.530 88.857,192.353 89.323 C 192.075 90.052,191.567 90.724,190.500 91.770 C 189.798 92.459,188.162 93.488,187.500 93.657 C 187.088 93.763,186.375 94.015,185.917 94.216 C 184.640 94.778,167.152 94.794,166.083 94.234 C 165.717 94.042,165.129 93.790,164.777 93.674 C 164.047 93.435,162.638 92.163,162.167 91.319 C 161.195 89.576,161.143 89.385,161.140 87.507 C 161.137 85.600,161.242 85.223,162.233 83.607 C 162.541 83.105,164.525 81.167,164.731 81.167 C 164.754 81.167,165.475 81.017,166.333 80.833 C 167.695 80.542,168.524 80.500,172.861 80.500 C 177.954 80.500,179.184 80.377,179.453 79.842 C 179.525 79.700,179.621 75.346,179.667 70.167 C 179.750 60.805,179.752 60.747,180.119 60.167 C 180.322 59.846,180.672 59.241,180.898 58.823 C 181.489 57.725,183.336 56.240,184.629 55.822 C 185.545 55.526,188.716 55.732,189.346 56.128 M314.399 56.984 C 313.193 57.719,313.657 58.417,315.351 58.417 C 316.618 58.417,317.185 58.122,316.590 57.774 C 316.410 57.669,316.048 57.377,315.785 57.125 C 315.220 56.582,315.080 56.568,314.399 56.984 M259.286 57.604 C 260.129 58.230,260.193 58.751,260.136 64.513 L 260.083 69.775 259.636 70.450 C 259.391 70.821,259.138 71.399,259.076 71.733 C 259.013 72.068,258.801 72.557,258.606 72.821 C 257.271 74.622,257.325 74.572,255.325 75.879 C 254.273 76.566,249.718 76.685,248.631 76.052 C 247.777 75.555,247.407 73.961,247.851 72.688 C 248.111 71.941,248.482 71.805,250.483 71.721 C 252.792 71.625,252.890 71.599,253.694 70.872 C 255.000 69.693,255.056 69.418,255.164 63.750 C 255.266 58.432,255.310 58.139,256.113 57.506 C 256.738 57.012,258.565 57.069,259.286 57.604 M351.852 57.426 C 352.885 57.960,353.000 58.610,353.000 63.889 C 353.000 68.838,352.701 71.158,351.926 72.223 C 351.781 72.421,351.474 72.867,351.243 73.214 C 350.717 74.003,349.529 75.167,349.250 75.167 C 349.135 75.167,348.938 75.291,348.812 75.444 C 348.274 76.095,347.167 76.386,345.159 76.401 C 342.779 76.419,342.495 76.279,342.062 74.880 C 341.359 72.604,342.026 71.799,344.774 71.606 C 345.916 71.526,345.996 71.492,346.742 70.766 C 347.806 69.733,347.833 69.565,347.833 64.151 C 347.833 59.321,347.908 58.609,348.482 57.936 C 349.117 57.191,350.881 56.924,351.852 57.426 M333.076 70.664 C 333.313 70.754,333.914 71.129,334.413 71.498 L 335.320 72.168 335.952 71.492 C 337.131 70.229,338.159 70.267,339.625 71.626 C 341.018 72.917,340.489 74.878,338.463 75.934 C 337.788 76.286,336.772 76.003,335.999 75.249 L 335.375 74.640 334.533 75.067 C 334.069 75.302,333.640 75.575,333.579 75.674 C 332.952 76.688,330.694 75.839,330.070 74.355 C 329.497 72.992,330.377 70.976,331.679 70.669 C 332.481 70.480,332.590 70.479,333.076 70.664 M208.143 87.362 C 209.504 88.024,211.167 89.385,211.167 89.837 C 211.167 89.939,211.352 90.265,211.578 90.562 C 212.364 91.592,212.583 94.926,211.944 96.135 C 210.749 98.396,210.132 99.095,208.558 99.968 C 207.518 100.544,203.707 100.633,202.456 100.110 C 201.001 99.503,199.876 98.361,198.814 96.417 C 198.064 95.043,198.221 91.559,199.079 90.532 C 199.286 90.285,199.504 89.925,199.565 89.731 C 199.734 89.190,201.264 87.986,202.660 87.294 C 204.546 86.360,206.123 86.380,208.143 87.362 M2.323 115.481 C 2.495 115.802,3.506 116.667,3.710 116.667 C 3.871 116.667,2.769 115.480,2.446 115.306 C 2.177 115.161,2.163 115.181,2.323 115.481 M397.251 115.999 C 397.085 116.183,397.026 116.333,397.120 116.333 C 397.330 116.333,397.746 115.857,397.634 115.745 C 397.590 115.701,397.417 115.815,397.251 115.999 " stroke="none" fill="#040404" fill-rule="evenodd"></path><path id="path3" d="M391.850 0.271 C 391.828 0.748,392.254 1.114,392.397 0.741 C 392.551 0.340,392.521 0.000,392.333 0.000 C 392.242 0.000,392.159 0.169,392.150 0.375 C 392.134 0.735,392.128 0.733,392.000 0.333 C 391.880 -0.041,391.865 -0.047,391.850 0.271 M392.793 0.413 C 392.712 0.838,393.136 1.142,393.499 0.918 C 393.591 0.860,393.667 0.887,393.667 0.976 C 393.667 1.066,393.610 1.170,393.542 1.209 C 393.473 1.247,393.503 1.259,393.609 1.234 C 393.714 1.210,393.843 1.352,393.895 1.550 C 393.967 1.825,394.035 1.865,394.184 1.716 C 394.332 1.568,394.473 1.584,394.778 1.783 C 395.274 2.109,395.505 1.928,395.092 1.538 C 394.924 1.379,394.839 1.344,394.903 1.458 C 395.052 1.724,394.796 1.730,394.533 1.467 C 394.270 1.204,394.276 0.948,394.542 1.097 C 394.656 1.161,394.621 1.076,394.462 0.908 C 394.094 0.518,393.916 0.688,394.162 1.194 C 394.343 1.565,394.340 1.568,394.093 1.260 C 393.950 1.082,393.823 0.707,393.811 0.426 C 393.793 0.034,393.771 0.003,393.716 0.292 C 393.626 0.756,393.333 0.788,393.333 0.333 C 393.333 -0.145,392.887 -0.079,392.793 0.413 M5.931 0.940 C 5.830 1.203,5.979 1.227,6.329 1.006 C 6.491 0.904,6.623 0.919,6.717 1.050 C 6.816 1.191,6.838 1.176,6.791 1.000 C 6.704 0.684,6.047 0.638,5.931 0.940 M5.394 1.125 C 5.408 1.308,5.308 1.408,5.125 1.394 C 4.965 1.381,4.833 1.428,4.833 1.499 C 4.833 1.723,5.463 1.803,5.677 1.606 C 5.835 1.461,5.851 1.475,5.748 1.667 C 5.674 1.804,5.675 1.861,5.750 1.793 C 5.825 1.725,5.991 1.757,6.119 1.863 C 6.301 2.014,6.341 2.005,6.301 1.820 C 6.273 1.690,6.119 1.530,5.958 1.464 C 5.798 1.398,5.667 1.229,5.667 1.089 C 5.667 0.948,5.600 0.833,5.519 0.833 C 5.437 0.833,5.381 0.965,5.394 1.125 M394.110 1.971 C 393.848 2.260,393.859 2.272,394.338 2.202 C 394.745 2.142,394.805 2.083,394.650 1.897 C 394.413 1.610,394.439 1.607,394.110 1.971 M4.926 1.984 C 4.875 2.067,4.683 2.096,4.500 2.048 C 4.268 1.988,4.167 2.043,4.167 2.231 C 4.167 2.489,3.987 2.570,3.542 2.512 C 3.427 2.498,3.333 2.564,3.333 2.659 C 3.333 2.882,3.947 2.887,4.083 2.667 C 4.239 2.415,4.500 2.467,4.500 2.750 C 4.500 2.887,4.574 3.000,4.665 3.000 C 4.755 3.000,4.812 2.831,4.790 2.625 C 4.761 2.350,4.827 2.263,5.039 2.298 C 5.240 2.332,5.298 2.268,5.230 2.090 C 5.116 1.794,5.057 1.774,4.926 1.984 M5.458 1.933 C 5.248 2.272,5.597 2.535,5.848 2.226 C 5.977 2.066,5.996 1.988,5.889 2.052 C 5.782 2.116,5.665 2.078,5.628 1.968 C 5.587 1.843,5.522 1.830,5.458 1.933 M9.333 2.155 C 8.921 2.215,8.424 2.353,8.230 2.460 C 8.036 2.567,7.830 2.608,7.772 2.550 C 7.714 2.492,7.667 2.643,7.667 2.886 C 7.667 3.233,7.569 3.348,7.208 3.423 C 6.505 3.571,6.266 3.745,6.164 4.182 C 6.100 4.454,5.884 4.644,5.494 4.771 C 5.028 4.924,4.892 5.074,4.776 5.563 C 4.677 5.985,4.542 6.167,4.329 6.167 C 3.871 6.167,3.558 6.567,3.441 7.304 C 3.342 7.920,2.987 8.281,2.670 8.086 C 2.597 8.040,2.498 8.209,2.449 8.460 C 2.400 8.711,2.281 9.217,2.184 9.583 C 1.811 10.990,2.026 109.176,2.403 109.757 C 2.579 110.028,2.853 110.365,3.012 110.506 C 3.171 110.646,3.384 111.069,3.485 111.444 C 3.684 112.183,3.897 112.430,4.417 112.526 C 4.653 112.569,4.774 112.756,4.833 113.169 C 4.907 113.685,4.982 113.759,5.499 113.833 C 5.987 113.903,6.094 113.996,6.166 114.409 C 6.238 114.826,6.366 114.935,7.000 115.116 C 7.413 115.234,7.864 115.468,8.003 115.636 C 8.142 115.804,8.477 116.086,8.746 116.263 C 9.276 116.610,388.006 116.870,390.417 116.525 C 391.972 116.303,392.333 116.130,392.333 115.611 C 392.333 115.468,392.629 115.271,393.035 115.141 C 393.547 114.978,393.763 114.807,393.831 114.515 C 393.917 114.146,394.440 113.793,394.689 113.936 C 394.831 114.016,395.226 113.530,395.272 113.220 C 395.351 112.680,395.508 112.500,395.900 112.500 C 396.318 112.500,396.378 112.402,396.580 111.392 C 396.646 111.067,396.810 110.835,397.012 110.782 C 397.982 110.528,397.917 114.245,397.917 59.333 C 397.917 5.300,397.965 8.205,397.063 7.794 C 396.841 7.692,396.616 7.416,396.564 7.180 C 396.364 6.276,396.305 6.187,395.826 6.082 C 395.555 6.022,395.333 5.867,395.333 5.737 C 395.333 5.607,395.328 5.444,395.321 5.375 C 395.305 5.202,394.817 4.677,394.688 4.693 C 394.256 4.747,394.000 4.623,394.000 4.359 C 394.000 3.993,393.498 3.500,393.126 3.500 C 392.641 3.500,392.333 3.301,392.333 2.988 C 392.333 2.703,391.952 2.394,391.333 2.179 C 390.961 2.050,10.208 2.025,9.333 2.155 M395.782 2.107 C 395.605 2.284,395.827 2.492,396.088 2.392 C 396.222 2.340,396.290 2.231,396.239 2.149 C 396.131 1.974,395.933 1.956,395.782 2.107 M389.833 3.112 C 390.429 3.402,391.183 3.749,391.508 3.881 C 392.840 4.423,395.886 7.856,396.346 9.333 C 396.517 9.881,396.790 10.533,396.953 10.782 C 397.410 11.480,397.416 106.946,396.959 107.782 C 396.799 108.074,396.491 108.802,396.275 109.398 C 395.835 110.608,395.391 111.230,393.894 112.727 C 392.410 114.210,391.938 114.536,390.083 115.351 L 388.417 116.083 200.083 116.083 L 11.750 116.083 10.833 115.642 C 10.329 115.400,9.553 115.045,9.109 114.853 C 7.905 114.334,5.492 112.252,4.932 111.250 C 4.778 110.975,4.468 110.495,4.243 110.183 C 4.017 109.871,3.757 109.309,3.665 108.933 C 3.573 108.557,3.329 107.763,3.124 107.167 L 2.750 106.083 2.750 59.250 L 2.750 12.417 3.399 10.437 C 3.819 9.156,4.216 8.265,4.524 7.915 C 4.786 7.617,5.000 7.297,5.000 7.205 C 5.000 7.019,6.625 5.376,7.623 4.552 C 7.977 4.260,8.675 3.860,9.175 3.663 C 9.674 3.467,10.181 3.224,10.301 3.125 C 11.046 2.506,5.910 2.521,200.417 2.553 L 388.750 2.583 389.833 3.112 M395.833 2.833 C 395.434 2.961,395.432 2.967,395.792 2.983 C 395.998 2.993,396.167 3.078,396.167 3.173 C 396.167 3.289,396.267 3.291,396.478 3.178 C 396.877 2.965,397.035 3.123,396.822 3.522 C 396.709 3.733,396.711 3.833,396.827 3.833 C 396.922 3.833,397.008 4.002,397.017 4.208 C 397.029 4.458,397.090 4.372,397.202 3.950 C 397.471 2.936,396.919 2.486,395.833 2.833 M3.750 2.946 C 3.004 3.111,2.950 3.155,3.168 3.419 C 3.299 3.576,3.309 3.667,3.197 3.667 C 3.099 3.667,2.973 3.592,2.917 3.500 C 2.860 3.408,2.724 3.334,2.615 3.336 C 2.496 3.337,2.516 3.403,2.667 3.500 C 2.872 3.633,2.855 3.662,2.569 3.664 C 1.969 3.669,2.182 4.082,2.795 4.104 C 3.173 4.118,3.291 4.076,3.142 3.982 C 2.986 3.882,3.064 3.838,3.395 3.836 C 3.777 3.834,3.836 3.788,3.689 3.610 C 3.586 3.487,3.552 3.337,3.611 3.278 C 3.671 3.218,3.820 3.253,3.943 3.355 C 4.066 3.457,4.172 3.513,4.179 3.479 C 4.283 2.974,4.286 2.836,4.194 2.853 C 4.133 2.863,3.933 2.905,3.750 2.946 M397.613 3.900 C 397.559 4.041,397.581 4.197,397.662 4.247 C 397.880 4.382,398.065 3.998,397.874 3.808 C 397.768 3.701,397.677 3.733,397.613 3.900 M2.052 4.561 C 2.111 4.714,2.074 4.833,1.967 4.833 C 1.670 4.833,1.915 5.003,2.326 5.082 C 2.650 5.144,2.669 5.120,2.473 4.884 C 2.350 4.736,2.274 4.573,2.304 4.520 C 2.334 4.468,2.266 4.394,2.153 4.356 C 2.021 4.313,1.985 4.386,2.052 4.561 M398.083 5.000 C 398.142 5.183,398.118 5.333,398.031 5.333 C 397.944 5.333,397.836 5.525,397.791 5.759 L 397.709 6.185 398.141 5.801 C 398.384 5.585,398.472 5.548,398.343 5.717 C 398.139 5.982,398.153 6.028,398.461 6.108 C 398.653 6.158,398.790 6.286,398.766 6.391 C 398.741 6.497,398.753 6.527,398.791 6.458 C 398.830 6.390,398.934 6.333,399.024 6.333 C 399.113 6.333,399.140 6.409,399.082 6.501 C 398.858 6.864,399.162 7.288,399.587 7.207 C 400.079 7.113,400.145 6.667,399.667 6.667 C 399.212 6.667,399.244 6.374,399.708 6.284 C 399.997 6.229,399.966 6.207,399.574 6.189 C 399.293 6.177,398.918 6.050,398.740 5.907 C 398.432 5.660,398.435 5.657,398.806 5.838 C 399.312 6.084,399.482 5.906,399.092 5.538 C 398.924 5.379,398.839 5.344,398.903 5.458 C 399.052 5.724,398.796 5.730,398.533 5.467 C 398.270 5.203,398.276 4.946,398.542 5.105 C 398.683 5.191,398.677 5.140,398.521 4.949 C 398.209 4.563,397.954 4.593,398.083 5.000 M1.163 5.254 C 0.841 5.642,1.071 5.715,1.416 5.334 C 1.582 5.150,1.641 5.000,1.546 5.000 C 1.452 5.000,1.279 5.114,1.163 5.254 M1.559 5.590 C 1.362 5.804,1.243 6.021,1.295 6.072 C 1.347 6.124,1.236 6.167,1.049 6.167 C 0.803 6.167,0.716 6.269,0.730 6.542 C 0.744 6.811,0.645 6.932,0.375 6.970 C 0.169 6.999,0.000 7.088,0.000 7.167 C 0.000 7.246,0.169 7.343,0.375 7.382 L 0.750 7.455 0.375 7.477 C -0.130 7.508,-0.102 7.775,0.417 7.874 C 0.782 7.944,0.926 7.835,0.792 7.591 C 0.769 7.549,0.900 7.401,1.083 7.262 C 1.267 7.124,1.351 7.008,1.271 7.005 C 1.191 7.002,1.221 6.886,1.337 6.746 C 1.453 6.606,1.498 6.442,1.436 6.381 C 1.375 6.320,1.533 6.172,1.788 6.053 C 2.207 5.857,2.211 5.846,1.835 5.942 C 1.460 6.038,1.442 6.021,1.653 5.766 C 1.782 5.612,1.998 5.527,2.134 5.580 C 2.337 5.658,2.344 5.630,2.170 5.420 C 2.054 5.281,1.950 5.175,1.938 5.184 C 1.926 5.194,1.756 5.377,1.559 5.590 M166.417 31.661 C 164.366 32.113,163.092 33.175,162.211 35.164 L 161.583 36.583 161.583 53.333 L 161.583 70.083 162.167 71.394 C 164.402 76.414,171.312 76.477,173.862 71.500 L 174.417 70.417 174.461 53.508 L 174.505 36.599 173.810 35.137 C 172.462 32.301,169.607 30.958,166.417 31.661 M170.339 32.267 C 171.727 32.679,172.781 33.722,173.500 35.394 L 174.083 36.750 174.083 53.333 L 174.083 69.917 173.523 71.200 C 171.390 76.082,164.372 76.017,162.515 71.098 L 162.000 69.733 162.001 53.325 L 162.001 36.917 162.469 35.667 C 163.137 33.879,163.562 33.379,165.148 32.512 C 166.176 31.951,168.849 31.825,170.339 32.267 M185.573 37.671 C 181.433 38.493,179.058 42.960,180.834 46.583 C 183.365 51.746,189.809 51.792,192.508 46.667 C 194.820 42.278,190.512 36.690,185.573 37.671 M202.837 38.131 C 201.355 38.751,200.082 40.037,199.417 41.586 L 198.917 42.750 198.917 58.167 L 198.917 73.583 199.319 74.667 C 200.366 77.484,201.863 79.260,204.169 80.418 C 206.335 81.505,206.565 81.525,216.750 81.467 L 225.750 81.417 226.500 81.023 C 230.947 78.688,231.789 73.643,228.285 70.328 C 226.750 68.876,225.482 68.678,217.644 68.671 L 212.538 68.667 212.228 68.208 C 211.933 67.774,211.912 67.094,211.833 55.167 L 211.750 42.583 211.139 41.318 C 209.632 38.197,206.005 36.805,202.837 38.131 M188.083 38.234 C 193.913 39.844,194.422 47.168,188.872 49.579 C 182.961 52.146,177.844 44.241,182.480 39.702 C 183.868 38.343,186.233 37.723,188.083 38.234 M207.295 38.446 C 209.175 39.057,210.102 39.916,210.865 41.755 L 211.417 43.083 211.500 55.591 C 211.591 69.269,211.559 68.858,212.544 69.078 C 212.749 69.124,215.804 69.183,219.333 69.210 C 226.693 69.265,226.596 69.248,228.131 70.746 C 231.236 73.777,230.396 78.570,226.407 80.583 L 225.417 81.083 216.667 81.135 C 210.775 81.170,207.607 81.127,206.967 81.004 C 203.828 80.397,201.042 78.064,199.929 75.111 L 199.417 73.750 199.371 58.502 L 199.325 43.254 199.787 41.934 C 200.887 38.795,203.965 37.365,207.295 38.446 M147.479 44.052 C 145.951 44.486,144.418 45.847,143.621 47.477 L 142.917 48.917 142.833 58.280 C 142.751 67.474,142.744 67.651,142.399 68.113 L 142.048 68.583 135.899 68.681 C 128.398 68.800,127.790 68.912,126.306 70.446 C 122.986 73.881,123.939 78.864,128.333 81.045 C 129.188 81.468,145.579 81.720,147.989 81.347 C 152.057 80.716,155.372 76.992,155.842 72.525 C 156.036 70.686,156.037 51.288,155.844 49.788 C 155.303 45.597,151.418 42.933,147.479 44.052 M151.931 44.779 C 153.506 45.577,154.218 46.329,154.936 47.952 L 155.583 49.417 155.583 61.250 C 155.583 72.285,155.563 73.134,155.281 73.833 C 155.115 74.246,154.790 75.128,154.557 75.794 C 153.752 78.101,150.715 80.469,147.889 80.991 C 146.571 81.235,130.635 81.228,129.495 80.983 C 124.828 79.982,123.192 74.056,126.645 70.656 C 128.067 69.256,128.012 69.265,135.500 69.200 C 141.373 69.149,142.117 69.112,142.392 68.863 C 143.169 68.161,143.167 68.191,143.168 58.967 C 143.169 49.907,143.172 49.850,143.930 47.823 C 145.056 44.809,149.015 43.303,151.931 44.779 M314.101 46.331 C 312.806 46.741,312.087 48.200,312.645 49.288 C 314.087 52.100,317.994 50.738,317.178 47.708 C 316.883 46.611,315.364 45.932,314.101 46.331 M315.915 46.868 C 317.818 47.793,316.803 50.733,314.690 50.417 C 312.479 50.086,312.318 46.881,314.500 46.622 C 314.821 46.584,315.100 46.541,315.121 46.527 C 315.141 46.512,315.499 46.666,315.915 46.868 M264.889 47.782 C 264.024 47.951,263.999 48.235,264.009 57.859 C 264.020 67.951,264.007 67.829,265.113 68.062 C 265.971 68.243,266.511 68.118,267.117 67.597 L 267.583 67.196 267.633 58.624 C 267.699 47.383,267.663 47.241,264.889 47.782 M326.501 48.035 C 325.679 48.591,325.640 49.045,325.707 57.417 L 325.764 64.583 326.315 65.549 C 327.584 67.772,328.789 68.167,334.315 68.167 C 340.682 68.167,341.961 67.136,342.128 61.871 C 342.232 58.599,341.859 57.833,340.159 57.833 C 338.856 57.833,338.581 58.305,338.443 60.773 C 338.301 63.307,338.262 63.430,337.423 63.922 C 336.480 64.474,331.730 64.544,330.583 64.023 C 329.357 63.465,329.426 63.917,329.333 55.812 C 329.239 47.522,329.321 47.964,327.833 47.750 C 327.210 47.661,326.985 47.709,326.501 48.035 M267.029 49.342 C 267.220 50.599,267.186 65.729,266.990 66.643 C 266.718 67.908,264.800 68.304,264.481 67.160 C 264.250 66.332,264.315 48.923,264.550 48.601 C 265.246 47.649,266.845 48.127,267.029 49.342 M328.895 49.282 C 328.953 49.702,329.004 52.905,329.009 56.398 C 329.022 65.041,328.836 64.717,333.833 64.791 C 338.084 64.853,338.655 64.452,338.782 61.310 C 338.868 59.182,339.031 58.575,339.555 58.435 C 340.331 58.227,340.850 58.334,341.276 58.792 L 341.702 59.250 341.622 61.833 C 341.462 66.997,340.451 67.823,334.282 67.830 C 329.237 67.836,327.694 67.345,326.696 65.417 L 326.264 64.583 326.202 57.667 C 326.127 49.337,326.168 48.762,326.865 48.338 C 327.745 47.803,328.757 48.274,328.895 49.282 M256.907 50.178 C 255.703 50.528,255.056 52.137,255.652 53.304 C 256.328 54.629,257.487 55.058,258.714 54.437 C 261.487 53.035,259.905 49.307,256.907 50.178 M259.148 50.907 C 260.495 51.603,259.451 54.333,257.838 54.333 C 256.568 54.333,255.707 53.254,255.909 51.912 C 256.124 50.476,257.493 50.051,259.148 50.907 M293.295 51.465 C 291.963 51.582,291.152 53.248,291.852 54.427 C 292.836 56.083,295.667 55.381,295.667 53.481 C 295.667 52.379,294.470 51.362,293.295 51.465 M286.621 52.042 C 285.232 53.363,286.051 55.333,287.989 55.333 C 289.725 55.333,290.524 53.316,289.292 52.042 C 288.846 51.581,288.651 51.500,287.979 51.500 C 287.317 51.500,287.099 51.587,286.621 52.042 M294.563 52.266 C 295.853 53.400,294.918 55.167,293.200 54.843 C 292.331 54.680,292.012 54.298,292.005 53.412 C 291.996 52.292,292.351 51.992,293.833 51.865 C 293.971 51.853,294.299 52.034,294.563 52.266 M289.072 52.320 C 290.010 53.358,289.394 54.833,288.022 54.833 C 286.547 54.833,285.908 53.451,286.884 52.375 C 287.338 51.876,288.640 51.843,289.072 52.320 M314.333 52.288 C 312.708 52.905,311.340 53.723,310.951 54.311 C 308.193 58.478,309.817 62.402,314.419 62.692 C 317.072 62.859,317.574 63.093,316.847 63.820 C 316.382 64.284,315.309 64.365,310.387 64.304 C 304.707 64.234,304.487 64.109,304.334 60.864 C 304.219 58.421,303.945 57.937,302.640 57.867 C 301.226 57.792,300.760 58.392,300.612 60.479 C 300.470 62.468,300.229 63.383,299.720 63.861 L 299.307 64.250 291.528 64.295 C 281.654 64.352,282.107 64.511,281.757 60.843 C 281.513 58.277,281.297 57.917,280.000 57.917 C 278.555 57.917,278.427 58.210,278.373 61.637 C 278.303 66.057,279.114 67.504,281.938 67.995 C 283.924 68.340,300.399 68.167,301.229 67.792 C 302.040 67.425,303.242 67.418,304.187 67.776 C 305.298 68.196,315.471 68.321,316.984 67.934 C 318.713 67.491,319.800 66.520,320.506 64.788 C 321.921 61.318,321.275 56.138,319.174 54.103 C 318.022 52.987,315.240 51.944,314.333 52.288 M316.908 53.243 C 320.573 54.361,322.025 59.590,320.097 64.733 C 319.587 66.096,319.474 66.246,318.614 66.721 C 316.601 67.831,317.151 67.739,312.172 67.803 C 307.424 67.864,304.849 67.689,303.994 67.247 C 303.273 66.874,301.945 66.933,301.118 67.375 L 300.417 67.750 291.167 67.750 C 280.849 67.750,281.416 67.810,279.922 66.561 C 278.842 65.658,278.667 65.005,278.667 61.879 C 278.667 58.703,278.796 58.333,279.909 58.333 C 281.032 58.333,281.333 58.816,281.333 60.615 C 281.333 64.733,281.575 64.835,291.282 64.829 C 300.736 64.824,301.000 64.715,301.000 60.832 C 301.000 58.947,301.393 58.333,302.601 58.333 C 303.700 58.333,303.998 58.903,304.000 61.000 C 304.001 62.960,304.251 63.538,305.403 64.246 L 306.224 64.750 311.244 64.750 C 316.738 64.750,316.781 64.743,317.448 63.726 C 317.983 62.909,317.297 62.574,314.835 62.450 C 310.992 62.257,309.218 59.785,310.437 56.320 C 311.486 53.338,313.726 52.272,316.908 53.243 M361.559 53.395 C 360.224 54.543,360.736 55.690,364.121 59.131 C 368.896 63.987,368.762 64.325,362.048 64.346 C 356.388 64.364,355.665 64.681,356.349 66.844 C 356.750 68.112,356.991 68.166,362.167 68.165 C 367.639 68.164,368.435 68.053,369.644 67.120 C 372.282 65.085,371.832 62.270,368.250 58.396 C 365.310 55.218,363.600 53.415,363.426 53.314 C 362.872 52.992,361.983 53.031,361.559 53.395 M363.663 54.026 C 363.803 54.241,364.479 54.983,365.167 55.676 C 367.532 58.060,369.917 60.837,370.292 61.644 C 371.099 63.382,370.880 65.822,369.860 66.453 C 369.616 66.604,369.229 66.894,369.000 67.098 C 368.371 67.657,366.720 67.833,362.101 67.833 C 357.535 67.833,357.322 67.791,356.812 66.791 C 355.977 65.155,356.839 64.833,362.061 64.833 C 369.139 64.833,369.487 64.162,364.899 59.361 C 361.067 55.350,360.770 54.831,361.681 53.732 C 362.023 53.321,363.332 53.515,363.663 54.026 M313.917 55.991 C 312.890 56.411,312.498 57.796,313.185 58.578 C 314.050 59.563,316.436 60.048,317.055 59.364 C 318.542 57.721,316.100 55.097,313.917 55.991 M185.417 56.278 C 183.322 56.856,181.821 58.116,180.885 60.083 L 180.250 61.417 180.166 70.667 C 180.082 79.996,180.043 80.571,179.469 80.942 C 179.348 81.020,176.287 81.122,172.667 81.169 C 165.251 81.266,165.727 81.185,163.848 82.671 C 160.234 85.528,161.350 92.102,165.673 93.421 C 167.272 93.909,184.781 93.929,186.500 93.445 C 189.432 92.619,191.943 89.857,192.954 86.343 C 193.285 85.194,193.482 65.577,193.192 62.680 C 192.772 58.492,188.912 55.313,185.417 56.278 M315.939 56.486 C 316.226 56.662,316.665 57.072,316.915 57.399 L 317.368 57.993 317.051 58.538 C 316.224 59.959,312.847 58.912,313.338 57.388 C 313.733 56.162,314.801 55.792,315.939 56.486 M188.745 57.086 C 190.683 57.867,191.493 58.670,192.271 60.577 L 192.844 61.982 192.791 73.950 L 192.739 85.917 192.153 87.421 C 191.283 89.654,190.374 90.778,188.333 92.140 C 186.579 93.311,186.406 93.327,175.905 93.330 C 165.345 93.334,165.580 93.361,163.979 91.968 C 160.857 89.253,161.515 84.454,165.326 82.137 L 166.236 81.583 172.826 81.500 C 179.718 81.413,179.927 81.390,180.287 80.670 C 180.357 80.531,180.456 76.217,180.506 71.083 L 180.599 61.750 181.120 60.502 C 182.485 57.231,185.621 55.826,188.745 57.086 M256.321 58.263 L 255.917 58.693 255.827 63.805 C 255.700 71.079,255.271 71.819,250.987 72.168 C 248.579 72.363,248.260 72.579,248.285 73.997 C 248.314 75.588,249.125 76.037,251.833 75.963 C 255.539 75.862,257.834 74.061,258.987 70.348 L 259.500 68.698 259.500 63.861 L 259.500 59.024 258.939 58.429 C 258.198 57.643,256.977 57.566,256.321 58.263 M349.191 58.415 C 348.902 58.743,348.652 59.028,348.633 59.047 C 348.615 59.067,348.559 61.373,348.508 64.172 C 348.390 70.758,348.031 71.616,345.231 72.022 C 342.689 72.390,342.301 72.762,342.573 74.570 C 342.732 75.632,343.118 75.899,344.603 75.974 C 347.731 76.132,350.901 73.850,351.973 70.667 C 352.458 69.229,352.446 59.428,351.959 58.583 C 351.386 57.589,349.990 57.505,349.191 58.415 M258.591 58.774 L 259.000 59.215 259.000 63.955 C 259.000 70.075,258.799 71.061,257.117 73.175 C 255.909 74.693,254.100 75.542,251.878 75.634 C 249.613 75.727,249.423 75.668,249.007 74.727 C 248.359 73.263,248.946 72.678,251.257 72.484 C 255.551 72.124,256.167 71.058,256.167 63.981 C 256.167 59.254,256.244 58.596,256.815 58.444 C 257.595 58.235,258.195 58.347,258.591 58.774 M351.496 58.662 C 352.020 59.187,352.051 59.602,351.951 64.727 C 351.832 70.848,351.721 71.292,349.784 73.420 C 347.676 75.737,343.445 76.523,343.003 74.681 C 342.649 73.202,342.991 72.760,344.690 72.500 C 348.459 71.925,348.996 70.882,348.998 64.138 L 349.000 59.359 349.431 58.846 C 349.962 58.216,350.960 58.127,351.496 58.662 M331.854 71.396 C 329.849 72.121,330.038 74.929,332.113 75.261 C 333.281 75.447,334.833 74.405,334.833 73.434 C 334.833 72.665,334.643 72.419,333.420 71.607 C 332.678 71.115,332.643 71.110,331.854 71.396 M337.213 71.442 C 335.014 72.221,335.205 74.862,337.488 75.248 C 338.868 75.481,340.108 74.116,339.763 72.743 C 339.690 72.450,338.151 71.118,337.958 71.180 C 337.935 71.187,337.600 71.305,337.213 71.442 M333.428 72.175 C 334.061 72.610,334.167 72.765,334.167 73.258 C 334.167 73.574,334.181 73.890,334.199 73.958 C 334.282 74.280,332.902 74.846,332.202 74.777 C 330.090 74.569,330.395 71.888,332.553 71.680 C 332.628 71.673,333.022 71.895,333.428 72.175 M338.792 72.283 C 340.071 73.229,339.090 75.024,337.438 74.759 C 335.672 74.477,335.584 72.423,337.315 71.902 C 337.981 71.702,338.019 71.712,338.792 72.283 M203.222 87.725 C 198.297 89.362,197.389 96.028,201.695 98.941 C 205.909 101.792,211.387 99.061,211.785 93.910 C 212.116 89.635,207.502 86.303,203.222 87.725 M207.471 88.145 C 208.950 88.605,210.198 89.739,210.681 91.063 C 210.886 91.624,211.126 92.176,211.213 92.290 C 212.159 93.524,209.938 98.833,208.475 98.833 C 208.390 98.833,208.092 99.002,207.813 99.208 C 206.950 99.846,203.716 99.768,202.606 99.083 C 199.321 97.058,198.433 93.529,200.381 90.241 C 201.546 88.274,204.797 87.313,207.471 88.145 M0.000 109.667 C 0.000 109.758,0.150 109.833,0.333 109.833 C 0.517 109.833,0.667 109.758,0.667 109.667 C 0.667 109.575,0.517 109.500,0.333 109.500 C 0.150 109.500,0.000 109.575,0.000 109.667 M0.375 110.463 C -0.153 110.548,-0.091 110.782,0.481 110.866 C 0.806 110.914,0.951 110.868,0.930 110.723 C 0.887 110.431,0.809 110.394,0.375 110.463 M399.273 111.083 C 399.204 111.264,399.291 111.333,399.589 111.333 C 399.843 111.333,400.000 111.238,400.000 111.083 C 400.000 110.946,399.858 110.833,399.684 110.833 C 399.511 110.833,399.326 110.946,399.273 111.083 M0.748 111.958 C 0.808 112.966,1.608 113.958,2.025 113.542 C 2.181 113.385,2.162 113.271,1.939 113.025 C 1.782 112.851,1.665 112.643,1.679 112.563 C 1.748 112.186,1.639 112.140,1.333 112.417 C 1.105 112.624,1.000 112.651,1.000 112.503 C 1.000 112.384,1.131 112.185,1.292 112.060 C 1.564 111.847,1.562 111.840,1.263 111.945 C 1.010 112.034,0.965 111.999,1.049 111.779 C 1.116 111.606,1.074 111.500,0.938 111.500 C 0.805 111.500,0.731 111.678,0.748 111.958 M399.142 111.709 C 399.226 111.793,399.472 111.834,399.689 111.800 C 400.023 111.747,399.999 111.724,399.536 111.647 C 399.205 111.592,399.050 111.616,399.142 111.709 M1.577 112.511 C 1.517 112.608,1.599 112.833,1.760 113.012 C 2.084 113.369,1.992 113.597,1.587 113.441 C 1.218 113.299,1.093 112.873,1.335 112.581 C 1.572 112.296,1.740 112.247,1.577 112.511 M398.531 112.954 C 398.136 113.288,398.002 113.583,398.247 113.583 C 398.337 113.583,398.412 113.471,398.413 113.333 C 398.415 113.196,398.529 113.082,398.667 113.080 C 398.919 113.077,399.091 112.868,398.954 112.732 C 398.914 112.691,398.723 112.791,398.531 112.954 M2.000 114.142 C 2.000 114.203,2.153 114.349,2.340 114.465 C 2.689 114.684,2.633 115.092,2.280 114.896 C 2.172 114.836,2.214 114.925,2.374 115.094 C 2.608 115.343,2.705 115.361,2.874 115.191 C 3.043 115.021,3.018 115.001,2.750 115.087 C 2.435 115.188,2.433 115.180,2.713 114.950 C 2.978 114.732,2.981 114.695,2.744 114.604 C 2.598 114.548,2.520 114.435,2.571 114.353 C 2.622 114.272,2.514 114.166,2.331 114.118 C 2.149 114.070,2.000 114.081,2.000 114.142 M397.017 114.458 C 397.008 114.665,396.922 114.833,396.827 114.833 C 396.710 114.833,396.712 114.941,396.833 115.167 C 396.997 115.473,396.943 115.568,396.631 115.522 C 396.566 115.512,396.557 115.622,396.612 115.766 C 396.851 116.388,397.393 115.436,397.204 114.725 C 397.092 114.302,397.029 114.211,397.017 114.458 M397.613 114.452 C 397.563 114.533,397.583 114.697,397.657 114.817 C 397.759 114.983,397.821 114.988,397.915 114.837 C 397.982 114.727,397.963 114.563,397.871 114.471 C 397.778 114.378,397.664 114.369,397.613 114.452 M3.458 114.948 C 3.298 114.990,3.167 115.094,3.167 115.179 C 3.167 115.264,3.167 115.390,3.167 115.458 C 3.167 115.527,3.242 115.593,3.333 115.604 C 3.719 115.652,3.738 115.680,3.500 115.849 C 3.311 115.982,3.301 116.046,3.459 116.110 C 3.575 116.157,3.620 116.273,3.561 116.369 C 3.500 116.468,3.554 116.510,3.684 116.466 C 3.811 116.424,3.916 116.246,3.916 116.070 C 3.916 115.893,4.015 115.770,4.137 115.796 C 4.259 115.821,4.310 115.764,4.251 115.668 C 4.192 115.573,4.074 115.538,3.988 115.590 C 3.837 115.684,3.767 115.457,3.821 115.042 C 3.836 114.927,3.826 114.842,3.799 114.853 C 3.772 114.863,3.619 114.906,3.458 114.948 M396.021 115.583 C 396.051 116.159,396.008 116.214,395.708 115.982 C 395.431 115.767,395.431 115.773,395.709 116.100 C 395.869 116.289,395.944 116.504,395.875 116.578 C 395.806 116.652,395.856 116.679,395.985 116.639 C 396.279 116.547,396.357 116.076,396.156 115.607 C 396.012 115.272,396.004 115.271,396.021 115.583 M4.186 116.292 C 4.171 116.580,4.253 116.662,4.542 116.647 C 4.807 116.634,4.835 116.606,4.635 116.554 C 4.480 116.513,4.320 116.353,4.280 116.198 C 4.227 115.999,4.200 116.026,4.186 116.292 M394.531 116.954 C 394.136 117.288,394.002 117.583,394.247 117.583 C 394.337 117.583,394.412 117.471,394.413 117.333 C 394.415 117.196,394.529 117.082,394.667 117.080 C 394.919 117.077,395.091 116.868,394.954 116.732 C 394.914 116.691,394.723 116.791,394.531 116.954 M4.836 117.099 C 4.832 117.350,5.476 117.913,5.612 117.777 C 5.673 117.716,5.616 117.666,5.486 117.664 C 5.298 117.662,5.294 117.633,5.466 117.524 C 5.639 117.415,5.631 117.344,5.425 117.173 C 5.213 116.998,5.166 117.000,5.164 117.188 C 5.162 117.368,5.127 117.363,5.000 117.167 C 4.911 117.029,4.837 116.999,4.836 117.099 M7.333 118.250 C 7.333 118.479,7.362 118.667,7.397 118.667 C 7.432 118.667,7.497 118.479,7.541 118.250 C 7.585 118.021,7.556 117.833,7.477 117.833 C 7.398 117.833,7.333 118.021,7.333 118.250 M6.667 118.333 C 6.667 118.517,6.742 118.667,6.833 118.667 C 6.925 118.667,7.000 118.517,7.000 118.333 C 7.000 118.150,6.925 118.000,6.833 118.000 C 6.742 118.000,6.667 118.150,6.667 118.333 " stroke="none" fill="#848484" fill-rule="evenodd"></path><path id="path4" d="M11.301 2.733 C 10.871 2.849,10.420 3.025,10.301 3.125 C 10.181 3.224,9.674 3.467,9.175 3.663 C 8.675 3.860,7.977 4.260,7.623 4.552 C 6.625 5.376,5.000 7.019,5.000 7.205 C 5.000 7.297,4.786 7.617,4.524 7.915 C 4.216 8.265,3.819 9.156,3.399 10.437 L 2.750 12.417 2.750 59.250 L 2.750 106.083 3.124 107.167 C 3.329 107.763,3.573 108.557,3.665 108.933 C 3.757 109.309,4.017 109.871,4.243 110.183 C 4.468 110.495,4.778 110.975,4.932 111.250 C 5.492 112.252,7.905 114.334,9.109 114.853 C 9.553 115.045,10.329 115.400,10.833 115.642 L 11.750 116.083 200.083 116.083 L 388.417 116.083 390.083 115.351 C 391.938 114.536,392.410 114.210,393.894 112.727 C 395.391 111.230,395.835 110.608,396.275 109.398 C 396.491 108.802,396.799 108.074,396.959 107.782 C 397.416 106.946,397.410 11.480,396.953 10.782 C 396.790 10.533,396.517 9.881,396.346 9.333 C 395.886 7.856,392.840 4.423,391.508 3.881 C 391.183 3.749,390.429 3.402,389.833 3.112 L 388.750 2.583 200.417 2.553 C 49.015 2.528,11.930 2.563,11.301 2.733 M388.297 3.431 C 388.638 3.576,389.442 3.885,390.083 4.118 C 391.587 4.664,393.292 6.098,394.725 8.021 C 395.521 9.090,395.573 9.204,396.108 11.083 L 396.583 12.750 396.583 59.250 L 396.583 105.750 396.146 107.366 C 395.905 108.254,395.549 109.229,395.354 109.532 C 395.160 109.835,394.869 110.305,394.709 110.576 C 394.396 111.105,392.718 112.804,391.805 113.517 C 391.006 114.141,390.699 114.281,388.718 114.923 L 386.939 115.500 200.011 115.497 L 13.083 115.494 11.247 114.857 C 8.768 113.998,6.571 112.346,5.451 110.500 C 5.201 110.087,4.850 109.563,4.670 109.333 C 4.344 108.918,3.821 106.492,3.483 103.833 C 3.385 103.060,3.343 85.749,3.374 58.417 L 3.424 14.250 3.873 12.010 C 4.224 10.256,4.426 9.624,4.805 9.094 C 5.070 8.721,5.412 8.172,5.565 7.874 C 6.132 6.767,8.560 4.684,9.794 4.246 C 10.228 4.091,10.996 3.787,11.500 3.569 L 12.417 3.173 200.047 3.170 C 370.840 3.167,387.733 3.190,388.297 3.431 M67.542 16.948 C 67.702 16.990,67.965 16.990,68.125 16.948 C 68.285 16.906,68.154 16.872,67.833 16.872 C 67.512 16.872,67.381 16.906,67.542 16.948 M64.208 17.115 C 64.369 17.157,64.631 17.157,64.792 17.115 C 64.952 17.073,64.821 17.039,64.500 17.039 C 64.179 17.039,64.048 17.073,64.208 17.115 M62.417 17.434 C 62.051 17.568,61.638 17.801,61.500 17.952 C 61.268 18.206,61.282 18.206,61.684 17.958 C 61.923 17.811,62.485 17.578,62.934 17.440 C 63.383 17.303,63.600 17.190,63.417 17.190 C 63.233 17.190,62.784 17.300,62.417 17.434 M70.519 17.412 C 73.329 18.331,76.502 21.162,78.622 24.639 C 79.008 25.272,79.144 25.254,78.810 24.614 C 77.255 21.627,72.620 17.604,70.326 17.250 C 69.856 17.177,69.891 17.207,70.519 17.412 M60.351 18.529 C 59.949 18.729,58.890 19.610,57.999 20.488 C 56.575 21.890,56.109 22.468,54.897 24.333 L 54.626 24.750 54.986 24.333 C 55.185 24.104,55.611 23.514,55.934 23.022 C 56.742 21.790,59.499 19.111,60.414 18.668 C 60.828 18.468,61.167 18.273,61.167 18.235 C 61.167 18.130,61.134 18.142,60.351 18.529 M65.417 24.692 C 63.873 25.488,63.214 26.029,62.363 27.200 C 61.170 28.840,60.168 30.382,60.167 30.576 C 60.167 30.663,60.503 30.213,60.915 29.576 C 63.233 25.984,64.934 24.500,66.734 24.500 C 67.642 24.500,69.859 25.721,70.488 26.568 C 71.129 27.430,71.913 28.330,71.736 28.000 C 70.346 25.406,67.213 23.766,65.417 24.692 M54.177 25.549 C 54.051 25.751,53.839 26.085,53.705 26.292 C 53.571 26.498,53.498 26.667,53.542 26.667 C 53.660 26.667,54.536 25.314,54.465 25.242 C 54.431 25.209,54.302 25.347,54.177 25.549 M79.459 26.250 C 79.650 26.617,80.082 27.504,80.419 28.221 C 80.755 28.938,81.068 29.488,81.113 29.442 C 81.159 29.397,81.007 29.035,80.776 28.638 C 80.545 28.241,80.198 27.492,80.005 26.974 C 79.812 26.455,79.532 25.930,79.383 25.807 C 79.172 25.634,79.189 25.734,79.459 26.250 M53.103 27.603 C 52.955 28.036,52.863 28.419,52.898 28.454 C 52.934 28.489,53.083 28.164,53.231 27.731 C 53.378 27.298,53.470 26.915,53.435 26.879 C 53.400 26.844,53.250 27.170,53.103 27.603 M51.911 30.364 C 51.751 30.851,51.443 31.604,51.227 32.036 C 51.010 32.468,50.837 32.881,50.841 32.953 C 50.845 33.025,51.042 32.711,51.279 32.256 C 51.755 31.341,52.372 29.649,52.267 29.545 C 52.231 29.508,52.070 29.877,51.911 30.364 M73.102 30.667 C 73.228 31.177,74.375 33.513,74.459 33.430 C 74.492 33.397,74.264 32.856,73.953 32.227 C 73.642 31.598,73.300 30.896,73.193 30.667 L 72.998 30.250 73.102 30.667 M166.667 30.853 C 166.346 30.950,166.007 31.093,165.915 31.169 C 165.822 31.246,165.313 31.470,164.784 31.668 C 164.237 31.873,163.711 32.199,163.563 32.424 C 163.420 32.642,163.153 32.868,162.968 32.927 C 162.784 32.985,162.489 33.344,162.312 33.725 C 162.136 34.105,161.840 34.608,161.654 34.843 C 161.047 35.610,160.980 37.720,161.033 54.589 L 161.083 70.583 161.464 71.333 C 162.280 72.940,162.450 73.186,163.290 73.974 C 163.767 74.422,164.366 74.868,164.620 74.965 C 164.875 75.062,165.584 75.335,166.195 75.571 C 167.545 76.092,168.683 76.126,169.576 75.670 C 169.932 75.489,170.607 75.229,171.076 75.093 C 171.599 74.941,172.133 74.633,172.457 74.297 C 172.747 73.996,173.106 73.637,173.254 73.500 C 173.537 73.236,174.120 72.417,174.618 71.583 C 174.899 71.113,174.920 70.079,174.967 54.083 C 175.021 35.791,175.016 35.631,174.410 34.800 C 174.189 34.498,173.927 34.063,173.827 33.833 C 173.551 33.200,172.062 31.880,171.367 31.651 C 171.028 31.540,170.476 31.307,170.141 31.133 C 169.413 30.755,167.498 30.600,166.667 30.853 M81.668 31.185 C 81.667 31.241,81.897 31.728,82.177 32.268 C 82.458 32.808,82.637 33.063,82.574 32.833 C 82.461 32.424,81.671 30.986,81.668 31.185 M59.538 32.038 C 59.333 32.414,59.189 32.745,59.219 32.775 C 59.249 32.805,59.445 32.526,59.654 32.154 C 59.863 31.782,60.006 31.451,59.973 31.417 C 59.939 31.384,59.744 31.663,59.538 32.038 M170.674 31.956 C 172.027 32.482,173.033 33.502,173.810 35.137 L 174.505 36.599 174.461 53.508 L 174.417 70.417 173.862 71.500 C 171.312 76.477,164.402 76.414,162.167 71.394 L 161.583 70.083 161.583 53.333 L 161.583 36.583 162.211 35.164 C 163.592 32.043,167.289 30.641,170.674 31.956 M82.834 34.013 C 82.835 34.228,83.650 35.695,83.661 35.500 C 83.663 35.454,83.478 35.048,83.249 34.597 C 83.021 34.146,82.834 33.883,82.834 34.013 M58.137 35.471 C 57.892 35.989,57.716 36.438,57.745 36.467 C 57.775 36.497,58.004 36.101,58.255 35.588 C 58.506 35.075,58.682 34.627,58.647 34.591 C 58.612 34.556,58.382 34.952,58.137 35.471 M49.949 35.252 C 49.797 35.572,49.706 35.833,49.748 35.833 C 49.862 35.833,50.368 34.813,50.292 34.737 C 50.256 34.700,50.102 34.932,49.949 35.252 M74.933 34.989 C 74.993 35.211,75.182 35.624,75.354 35.905 C 75.712 36.494,75.773 37.814,75.458 38.167 C 75.281 38.366,75.294 38.368,75.542 38.180 C 76.014 37.823,75.912 36.591,75.321 35.500 C 75.047 34.996,74.873 34.766,74.933 34.989 M83.762 36.000 C 83.824 36.229,83.943 36.529,84.028 36.667 C 84.135 36.840,84.149 36.790,84.071 36.500 C 84.010 36.271,83.890 35.971,83.805 35.833 C 83.698 35.660,83.685 35.710,83.762 36.000 M57.528 37.258 C 57.501 37.906,57.715 38.333,58.065 38.333 C 58.156 38.333,58.107 38.240,57.957 38.125 C 57.807 38.010,57.655 37.617,57.620 37.250 L 57.556 36.583 57.528 37.258 M49.091 37.309 C 49.022 37.616,48.814 38.019,48.629 38.204 C 48.443 38.391,48.394 38.510,48.521 38.470 C 48.807 38.381,49.386 37.240,49.289 36.958 C 49.249 36.844,49.160 37.001,49.091 37.309 M184.772 37.174 C 184.418 37.263,183.906 37.523,183.635 37.751 C 183.363 37.980,183.045 38.167,182.927 38.167 C 182.556 38.167,181.221 39.465,180.917 40.121 C 180.757 40.467,180.485 40.904,180.315 41.092 C 179.470 42.021,179.474 46.039,180.320 46.947 C 180.486 47.125,180.751 47.544,180.910 47.879 C 182.206 50.611,187.178 51.928,189.859 50.250 C 191.721 49.084,191.971 48.860,192.361 48.011 C 192.574 47.547,192.803 47.167,192.870 47.167 C 193.644 47.167,193.923 42.454,193.215 41.333 C 193.012 41.012,192.694 40.473,192.508 40.134 C 192.043 39.289,191.076 38.384,190.398 38.161 C 190.087 38.058,189.833 37.921,189.833 37.856 C 189.833 37.244,186.356 36.775,184.772 37.174 M204.083 37.071 C 203.992 37.109,203.649 37.184,203.321 37.238 C 202.993 37.293,202.576 37.476,202.394 37.646 C 202.212 37.816,201.777 38.090,201.429 38.255 C 200.700 38.601,199.728 39.543,199.564 40.062 C 199.502 40.257,199.280 40.643,199.069 40.920 C 198.359 41.853,198.342 42.261,198.337 58.345 C 198.333 74.637,198.349 75.001,199.088 75.833 C 199.210 75.971,199.457 76.421,199.638 76.833 C 200.039 77.751,202.201 80.055,203.000 80.417 C 203.321 80.562,203.830 80.860,204.132 81.079 C 205.187 81.843,205.708 81.884,215.315 81.953 C 227.073 82.038,226.868 82.069,229.085 79.861 C 232.420 76.540,231.235 70.468,226.927 68.800 C 226.383 68.589,225.708 68.327,225.427 68.218 C 225.066 68.077,223.122 68.016,218.798 68.009 C 212.923 68.000,212.671 67.987,212.506 67.678 C 212.391 67.464,212.333 63.286,212.333 55.284 C 212.333 47.968,212.268 42.867,212.167 42.337 C 211.883 40.837,210.356 38.755,209.150 38.222 C 208.792 38.065,208.500 37.884,208.500 37.820 C 208.500 37.373,204.857 36.755,204.083 37.071 M187.833 37.680 C 194.023 39.098,195.037 46.864,189.417 49.806 C 185.347 51.936,180.267 48.715,180.261 44.000 C 180.255 40.069,184.133 36.832,187.833 37.680 M207.833 38.155 C 209.416 38.854,210.407 39.803,211.139 41.318 L 211.750 42.583 211.833 55.167 C 211.912 67.094,211.933 67.774,212.228 68.208 L 212.538 68.667 217.644 68.671 C 225.482 68.678,226.750 68.876,228.285 70.328 C 231.789 73.643,230.947 78.688,226.500 81.023 L 225.750 81.417 216.750 81.467 C 206.565 81.525,206.335 81.505,204.169 80.418 C 201.863 79.260,200.366 77.484,199.319 74.667 L 198.917 73.583 198.917 58.167 L 198.917 42.750 199.417 41.586 C 200.837 38.281,204.625 36.737,207.833 38.155 M65.542 38.124 C 66.344 38.155,67.656 38.155,68.458 38.124 C 69.260 38.094,68.604 38.069,67.000 38.069 C 65.396 38.069,64.740 38.094,65.542 38.124 M62.294 38.285 C 62.501 38.324,62.801 38.323,62.960 38.281 C 63.120 38.239,62.950 38.207,62.583 38.209 C 62.217 38.211,62.086 38.245,62.294 38.285 M70.544 38.286 C 70.797 38.325,71.172 38.324,71.377 38.284 C 71.582 38.244,71.375 38.213,70.917 38.214 C 70.458 38.216,70.291 38.248,70.544 38.286 M84.833 38.249 C 84.833 38.491,85.986 38.996,86.500 38.979 L 87.083 38.958 86.397 38.846 C 86.019 38.784,85.513 38.604,85.272 38.446 C 85.031 38.288,84.833 38.199,84.833 38.249 M59.213 38.456 C 59.652 38.490,60.327 38.490,60.713 38.455 C 61.100 38.420,60.742 38.392,59.917 38.392 C 59.092 38.393,58.775 38.422,59.213 38.456 M72.708 38.456 C 73.144 38.490,73.856 38.490,74.292 38.456 C 74.727 38.422,74.371 38.393,73.500 38.393 C 72.629 38.393,72.273 38.422,72.708 38.456 M46.708 38.948 C 46.869 38.990,47.131 38.990,47.292 38.948 C 47.452 38.906,47.321 38.872,47.000 38.872 C 46.679 38.872,46.548 38.906,46.708 38.948 M44.750 39.167 C 44.057 39.343,44.739 39.351,45.583 39.176 C 46.144 39.060,46.170 39.038,45.750 39.039 C 45.475 39.039,45.025 39.097,44.750 39.167 M88.417 39.258 C 89.058 39.380,89.733 39.475,89.917 39.470 C 90.100 39.465,89.763 39.360,89.167 39.238 C 88.571 39.116,87.896 39.020,87.667 39.026 C 87.438 39.032,87.775 39.137,88.417 39.258 M41.208 39.782 C 41.369 39.823,41.631 39.823,41.792 39.782 C 41.952 39.740,41.821 39.705,41.500 39.705 C 41.179 39.705,41.048 39.740,41.208 39.782 M96.250 40.507 C 96.800 40.684,97.325 40.824,97.417 40.818 C 97.703 40.800,95.935 40.193,95.583 40.189 C 95.400 40.186,95.700 40.329,96.250 40.507 M36.583 40.500 C 36.373 40.590,36.342 40.643,36.500 40.643 C 36.637 40.643,36.900 40.579,37.083 40.500 C 37.293 40.410,37.324 40.357,37.167 40.357 C 37.029 40.357,36.767 40.421,36.583 40.500 M35.333 40.833 C 34.998 40.941,34.982 40.968,35.250 40.972 C 35.433 40.974,35.733 40.912,35.917 40.833 C 36.341 40.651,35.903 40.651,35.333 40.833 M101.833 42.000 C 102.154 42.176,102.492 42.319,102.583 42.319 C 102.675 42.319,102.487 42.176,102.167 42.000 C 101.846 41.824,101.508 41.681,101.417 41.681 C 101.325 41.681,101.513 41.824,101.833 42.000 M30.833 42.167 C 30.512 42.342,30.325 42.486,30.417 42.486 C 30.508 42.486,30.846 42.342,31.167 42.167 C 31.488 41.991,31.675 41.847,31.583 41.847 C 31.492 41.847,31.154 41.991,30.833 42.167 M28.893 42.987 C 28.605 43.163,28.311 43.406,28.240 43.528 C 28.163 43.659,28.240 43.639,28.430 43.479 C 28.606 43.330,28.975 43.090,29.250 42.944 C 29.525 42.799,29.675 42.677,29.583 42.674 C 29.492 42.671,29.181 42.812,28.893 42.987 M147.333 43.552 C 145.735 43.925,144.428 44.955,143.237 46.784 C 142.360 48.129,142.342 48.363,142.337 58.176 C 142.334 65.759,142.294 67.323,142.097 67.593 C 141.872 67.901,141.552 67.921,135.472 68.000 C 129.325 68.080,129.061 68.097,128.500 68.438 C 128.179 68.633,127.654 68.878,127.333 68.981 C 126.639 69.206,125.251 70.495,124.915 71.229 C 124.783 71.515,124.505 71.962,124.296 72.221 C 123.943 72.659,123.917 72.847,123.917 74.971 L 123.917 77.250 124.640 78.439 C 125.837 80.408,127.336 81.525,129.186 81.825 C 130.633 82.060,146.570 82.056,148.280 81.821 C 149.617 81.636,151.000 81.146,151.000 80.856 C 151.000 80.766,151.270 80.603,151.600 80.495 C 151.929 80.386,152.706 79.819,153.325 79.235 C 154.330 78.286,154.654 77.817,155.327 76.333 C 155.431 76.104,155.631 75.708,155.770 75.452 C 156.477 74.159,156.610 48.911,155.917 47.639 C 155.733 47.302,155.377 46.649,155.125 46.186 C 154.873 45.724,154.498 45.259,154.292 45.153 C 154.086 45.047,153.691 44.747,153.416 44.487 C 152.409 43.536,149.393 43.072,147.333 43.552 M151.855 44.258 C 154.205 45.459,155.521 47.283,155.844 49.788 C 156.037 51.288,156.036 70.686,155.842 72.525 C 155.372 76.992,152.057 80.716,147.989 81.347 C 145.579 81.720,129.188 81.468,128.333 81.045 C 123.939 78.864,122.986 73.881,126.306 70.446 C 127.790 68.912,128.398 68.800,135.899 68.681 L 142.048 68.583 142.399 68.113 C 142.744 67.651,142.751 67.474,142.833 58.280 L 142.917 48.917 143.621 47.477 C 145.096 44.461,149.151 42.876,151.855 44.258 M26.995 44.509 C 26.894 44.698,26.836 44.926,26.867 45.016 C 26.897 45.107,27.008 44.953,27.113 44.674 C 27.332 44.094,27.266 44.002,26.995 44.509 M314.405 45.490 C 311.528 46.178,310.872 49.716,313.387 50.978 L 314.173 51.372 313.693 51.644 C 313.259 51.891,312.652 52.272,311.139 53.250 C 309.615 54.234,308.592 58.195,309.390 60.019 C 310.473 62.494,311.525 63.153,314.417 63.165 C 316.128 63.173,316.829 63.407,315.653 63.579 C 314.608 63.731,306.669 63.774,306.158 63.630 C 305.517 63.449,305.000 62.072,305.000 60.543 C 305.000 58.103,304.127 57.046,302.242 57.202 C 300.417 57.353,299.984 58.044,299.832 61.049 C 299.746 62.736,299.665 63.240,299.439 63.465 C 299.032 63.873,283.491 63.906,283.111 63.500 C 282.755 63.120,282.500 61.830,282.500 60.410 C 282.500 58.255,281.819 57.318,280.166 57.199 C 278.226 57.059,277.830 57.861,277.839 61.905 C 277.849 65.916,278.641 67.639,280.807 68.363 C 281.714 68.666,298.791 68.761,300.405 68.472 C 301.891 68.206,303.295 68.208,305.437 68.479 C 307.573 68.750,316.936 68.658,317.861 68.357 C 318.198 68.248,318.648 67.970,318.861 67.739 C 319.075 67.508,319.461 67.205,319.718 67.067 C 319.976 66.928,320.337 66.500,320.522 66.116 C 320.706 65.731,321.020 65.117,321.220 64.750 C 321.561 64.124,321.583 63.867,321.583 60.500 C 321.583 57.133,321.561 56.876,321.220 56.250 C 321.020 55.883,320.709 55.275,320.528 54.899 C 320.041 53.886,319.218 53.181,317.435 52.250 C 315.597 51.291,315.636 51.345,316.508 50.943 C 317.800 50.347,318.298 47.298,317.227 46.540 C 315.529 45.335,315.342 45.266,314.405 45.490 M26.714 46.250 C 26.716 46.708,26.748 46.876,26.786 46.623 C 26.825 46.369,26.824 45.994,26.784 45.789 C 26.744 45.584,26.713 45.792,26.714 46.250 M316.373 46.661 C 317.827 47.523,317.496 49.978,315.834 50.666 C 314.144 51.366,312.040 49.706,312.492 48.030 C 312.931 46.399,314.811 45.736,316.373 46.661 M106.542 47.083 C 106.544 47.450,106.578 47.580,106.618 47.373 C 106.658 47.166,106.656 46.866,106.615 46.706 C 106.573 46.547,106.540 46.717,106.542 47.083 M265.333 46.946 C 263.606 47.226,263.667 46.825,263.667 58.005 L 263.667 67.692 264.154 68.179 C 264.942 68.967,267.113 68.795,267.826 67.888 C 268.362 67.207,268.360 48.624,267.824 47.943 C 267.523 47.560,266.135 46.795,265.854 46.856 C 265.797 46.869,265.563 46.909,265.333 46.946 M326.575 47.179 C 325.160 47.817,325.256 47.184,325.201 56.226 C 325.147 65.001,325.149 65.035,325.745 65.729 C 325.972 65.992,326.199 66.338,326.249 66.498 C 326.403 66.982,327.896 68.125,328.680 68.358 C 329.731 68.671,338.493 68.674,339.375 68.362 C 340.091 68.108,341.447 66.909,341.826 66.194 C 341.968 65.927,342.229 65.455,342.407 65.146 C 342.682 64.669,342.741 64.179,342.795 61.917 C 342.889 57.981,342.548 57.320,340.361 57.197 C 338.497 57.091,337.836 57.959,337.831 60.519 C 337.825 63.527,337.563 63.750,334.035 63.750 C 329.547 63.750,329.855 64.373,329.843 55.283 C 329.832 47.778,329.831 47.766,328.799 47.294 C 327.901 46.883,327.302 46.852,326.575 47.179 M26.872 48.000 C 26.872 48.321,26.906 48.452,26.948 48.292 C 26.990 48.131,26.990 47.869,26.948 47.708 C 26.906 47.548,26.872 47.679,26.872 48.000 M266.847 48.046 C 267.664 48.597,267.690 48.941,267.633 58.624 L 267.583 67.196 267.117 67.597 C 266.511 68.118,265.971 68.243,265.113 68.062 C 264.007 67.829,264.020 67.951,264.009 57.859 C 263.998 47.282,263.914 47.771,265.767 47.689 C 266.061 47.676,266.527 47.830,266.847 48.046 M328.917 48.183 C 329.237 48.496,329.253 48.786,329.333 55.812 C 329.426 63.917,329.357 63.465,330.583 64.023 C 331.730 64.544,336.480 64.474,337.423 63.922 C 338.262 63.430,338.301 63.307,338.443 60.773 C 338.581 58.305,338.856 57.833,340.159 57.833 C 341.859 57.833,342.232 58.599,342.128 61.871 C 341.961 67.136,340.682 68.167,334.315 68.167 C 328.789 68.167,327.584 67.772,326.315 65.549 L 325.764 64.583 325.707 57.417 C 325.640 49.045,325.679 48.591,326.501 48.035 C 327.194 47.568,328.359 47.640,328.917 48.183 M256.928 49.408 C 253.640 50.611,254.186 55.115,257.630 55.209 C 259.536 55.261,260.583 54.241,260.583 52.333 C 260.583 50.242,258.722 48.752,256.928 49.408 M258.997 50.415 C 260.690 51.273,260.532 53.518,258.714 54.437 C 257.001 55.304,255.124 53.841,255.483 51.919 C 255.799 50.228,257.333 49.572,258.997 50.415 M287.115 50.852 C 286.070 51.460,285.325 52.421,285.223 53.295 L 285.120 54.173 286.116 55.170 C 287.441 56.495,288.483 56.602,289.485 55.516 C 290.354 54.575,291.142 54.526,291.838 55.370 C 292.725 56.446,294.102 56.451,295.277 55.382 C 296.356 54.399,296.426 54.140,296.079 52.409 C 296.041 52.221,295.623 51.752,295.150 51.367 C 293.905 50.354,292.970 50.408,291.829 51.556 C 291.098 52.292,290.371 52.208,289.330 51.267 C 288.629 50.634,287.768 50.473,287.115 50.852 M295.267 52.388 C 295.712 52.912,295.810 53.924,295.458 54.363 C 294.012 56.169,291.391 55.376,291.626 53.203 C 291.828 51.323,293.959 50.846,295.267 52.388 M289.292 52.042 C 291.160 53.974,288.520 56.505,286.510 54.708 C 285.217 53.552,286.156 51.500,287.979 51.500 C 288.651 51.500,288.846 51.581,289.292 52.042 M316.896 52.768 C 319.595 53.835,320.851 55.640,321.152 58.880 C 321.620 63.917,320.143 67.125,316.984 67.934 C 315.471 68.321,305.298 68.196,304.187 67.776 C 303.242 67.418,302.040 67.425,301.229 67.792 C 300.399 68.167,283.924 68.340,281.938 67.995 C 279.114 67.504,278.303 66.057,278.373 61.637 C 278.427 58.210,278.555 57.917,280.000 57.917 C 281.297 57.917,281.513 58.277,281.757 60.843 C 282.107 64.511,281.654 64.352,291.528 64.295 L 299.307 64.250 299.720 63.861 C 300.229 63.383,300.470 62.468,300.612 60.479 C 300.760 58.392,301.226 57.792,302.640 57.867 C 303.945 57.937,304.219 58.421,304.334 60.864 C 304.487 64.109,304.707 64.234,310.387 64.304 C 315.309 64.365,316.382 64.284,316.847 63.820 C 317.574 63.093,317.072 62.859,314.419 62.692 C 312.457 62.568,312.294 62.531,311.626 62.048 C 308.570 59.839,309.201 54.690,312.733 53.021 C 314.962 51.967,314.883 51.972,316.896 52.768 M361.464 52.710 C 359.660 54.212,359.746 55.345,361.831 57.583 C 363.249 59.104,364.500 60.333,364.631 60.333 C 364.713 60.333,364.920 60.591,365.089 60.906 C 365.259 61.220,365.552 61.561,365.741 61.662 C 365.930 61.763,366.227 62.191,366.402 62.614 C 366.906 63.832,366.902 63.833,361.646 63.833 C 359.194 63.833,357.000 63.905,356.770 63.993 C 355.513 64.470,355.355 67.548,356.547 68.338 C 357.039 68.665,365.729 68.785,367.790 68.494 C 370.104 68.166,372.000 66.123,372.000 63.956 C 372.000 62.910,370.755 59.982,370.180 59.674 C 370.002 59.578,369.807 59.347,369.748 59.161 C 369.689 58.974,369.346 58.635,368.987 58.408 C 368.627 58.181,368.333 57.887,368.333 57.755 C 368.333 57.623,368.071 57.305,367.750 57.049 C 367.429 56.793,367.167 56.513,367.167 56.428 C 367.167 56.342,366.529 55.652,365.750 54.893 C 364.971 54.135,364.333 53.438,364.333 53.344 C 364.333 52.695,362.079 52.197,361.464 52.710 M363.426 53.314 C 363.600 53.415,365.310 55.218,368.250 58.396 C 371.832 62.270,372.282 65.085,369.644 67.120 C 368.435 68.053,367.639 68.164,362.167 68.165 C 356.991 68.166,356.750 68.112,356.349 66.844 C 355.665 64.681,356.388 64.364,362.048 64.346 C 368.762 64.325,368.896 63.987,364.121 59.131 C 361.232 56.194,360.842 55.623,361.003 54.561 C 361.200 53.265,362.336 52.681,363.426 53.314 M27.872 54.667 C 27.872 54.987,27.906 55.119,27.948 54.958 C 27.990 54.798,27.990 54.535,27.948 54.375 C 27.906 54.215,27.872 54.346,27.872 54.667 M184.629 55.822 C 183.336 56.240,181.489 57.725,180.898 58.823 C 180.672 59.241,180.322 59.846,180.119 60.167 C 179.752 60.747,179.750 60.805,179.667 70.167 C 179.621 75.346,179.525 79.700,179.453 79.842 C 179.184 80.377,177.954 80.500,172.861 80.500 C 168.524 80.500,167.695 80.542,166.333 80.833 C 165.475 81.017,164.754 81.167,164.731 81.167 C 164.525 81.167,162.541 83.105,162.233 83.607 C 160.334 86.705,160.754 90.237,163.311 92.676 C 163.765 93.110,164.425 93.559,164.777 93.674 C 165.129 93.790,165.717 94.042,166.083 94.234 C 167.152 94.794,184.640 94.778,185.917 94.216 C 186.375 94.015,187.088 93.763,187.500 93.657 C 188.162 93.488,189.798 92.459,190.500 91.770 C 191.567 90.724,192.075 90.052,192.353 89.323 C 192.530 88.857,192.825 88.273,193.008 88.025 C 194.014 86.664,194.224 61.744,193.244 60.038 C 192.144 58.125,191.491 57.353,190.522 56.820 C 190.189 56.637,189.660 56.326,189.346 56.128 C 188.716 55.732,185.545 55.526,184.629 55.822 M189.333 56.880 C 191.692 57.985,192.904 59.807,193.192 62.680 C 193.482 65.577,193.285 85.194,192.954 86.343 C 191.943 89.857,189.432 92.619,186.500 93.445 C 184.781 93.929,167.272 93.909,165.673 93.421 C 161.350 92.102,160.234 85.528,163.848 82.671 C 165.727 81.185,165.251 81.266,172.667 81.169 C 176.287 81.122,179.348 81.020,179.469 80.942 C 180.043 80.571,180.082 79.996,180.166 70.667 L 180.250 61.417 180.885 60.083 C 181.685 58.402,182.442 57.612,183.917 56.919 C 185.979 55.949,187.325 55.939,189.333 56.880 M314.220 56.283 C 313.410 56.440,312.947 57.828,313.505 58.422 C 314.357 59.329,316.549 59.401,317.051 58.538 L 317.368 57.993 316.915 57.399 C 316.124 56.362,315.385 56.056,314.220 56.283 M315.785 57.125 C 316.048 57.377,316.410 57.669,316.590 57.774 C 317.185 58.122,316.618 58.417,315.351 58.417 C 313.657 58.417,313.193 57.719,314.399 56.984 C 315.080 56.568,315.220 56.582,315.785 57.125 M256.113 57.506 C 255.310 58.139,255.266 58.432,255.164 63.750 C 255.028 70.928,254.664 71.546,250.483 71.721 C 248.482 71.805,248.111 71.941,247.851 72.688 C 247.407 73.961,247.777 75.555,248.631 76.052 C 249.718 76.685,254.273 76.566,255.325 75.879 C 257.325 74.572,257.271 74.622,258.606 72.821 C 258.801 72.557,259.013 72.068,259.076 71.733 C 259.138 71.399,259.391 70.821,259.636 70.450 L 260.083 69.775 260.136 64.513 C 260.193 58.751,260.129 58.230,259.286 57.604 C 258.565 57.069,256.738 57.012,256.113 57.506 M349.250 57.400 C 347.938 57.979,347.833 58.479,347.833 64.151 C 347.833 69.565,347.806 69.733,346.742 70.766 C 345.996 71.492,345.916 71.526,344.774 71.606 C 342.026 71.799,341.359 72.604,342.062 74.880 C 342.495 76.279,342.779 76.419,345.159 76.401 C 347.167 76.386,348.274 76.095,348.812 75.444 C 348.938 75.291,349.135 75.167,349.250 75.167 C 349.529 75.167,350.717 74.003,351.243 73.214 C 351.474 72.867,351.781 72.421,351.926 72.223 C 352.976 70.781,353.538 60.450,352.677 58.440 C 352.169 57.257,350.632 56.790,349.250 57.400 M258.939 58.429 L 259.500 59.024 259.500 63.861 L 259.500 68.698 258.987 70.348 C 257.834 74.061,255.539 75.862,251.833 75.963 C 249.125 76.037,248.314 75.588,248.285 73.997 C 248.260 72.579,248.579 72.363,250.987 72.168 C 255.271 71.819,255.700 71.079,255.827 63.805 L 255.917 58.693 256.321 58.263 C 256.977 57.566,258.198 57.643,258.939 58.429 M351.959 58.583 C 352.446 59.428,352.458 69.229,351.973 70.667 C 350.901 73.850,347.731 76.132,344.603 75.974 C 343.118 75.899,342.732 75.632,342.573 74.570 C 342.301 72.762,342.689 72.390,345.231 72.022 C 348.031 71.616,348.390 70.758,348.508 64.172 C 348.559 61.373,348.615 59.067,348.633 59.047 C 348.652 59.028,348.902 58.743,349.191 58.415 C 349.990 57.505,351.386 57.589,351.959 58.583 M331.679 70.669 C 330.377 70.976,329.497 72.992,330.070 74.355 C 330.694 75.839,332.952 76.688,333.579 75.674 C 333.640 75.575,334.069 75.302,334.533 75.067 L 335.375 74.640 335.999 75.249 C 337.203 76.425,338.194 76.368,339.625 75.041 C 341.018 73.750,340.489 71.789,338.463 70.733 C 337.744 70.358,336.723 70.667,335.952 71.492 L 335.320 72.168 334.413 71.498 C 333.073 70.508,332.763 70.413,331.679 70.669 M333.420 71.607 C 334.643 72.419,334.833 72.665,334.833 73.434 C 334.833 74.405,333.281 75.447,332.113 75.261 C 330.038 74.929,329.849 72.121,331.854 71.396 C 332.643 71.110,332.678 71.115,333.420 71.607 M338.834 71.766 C 340.627 73.055,339.639 75.611,337.488 75.248 C 334.761 74.787,335.072 72.100,337.958 71.180 C 337.981 71.173,338.375 71.436,338.834 71.766 M202.660 87.294 C 201.264 87.986,199.734 89.190,199.565 89.731 C 199.504 89.925,199.286 90.285,199.079 90.532 C 198.221 91.559,198.064 95.043,198.814 96.417 C 199.876 98.361,201.001 99.503,202.456 100.110 C 203.707 100.633,207.518 100.544,208.558 99.968 C 210.132 99.095,210.749 98.396,211.944 96.135 C 212.583 94.926,212.364 91.592,211.578 90.562 C 211.352 90.265,211.167 89.939,211.167 89.837 C 211.167 89.385,209.504 88.024,208.143 87.362 C 206.123 86.380,204.546 86.360,202.660 87.294 M207.716 87.801 C 210.125 88.663,211.976 91.443,211.785 93.910 C 211.272 100.550,202.586 102.471,199.682 96.587 C 197.039 91.233,202.036 85.769,207.716 87.801 M40.833 88.885 C 40.833 88.914,41.077 89.158,41.375 89.427 L 41.917 89.917 41.427 89.375 C 40.971 88.870,40.833 88.757,40.833 88.885 " stroke="none" fill="#646464" fill-rule="evenodd"></path></g></svg>