<svg xmlns="http://www.w3.org/2000/svg" viewBox="0 0 3152 1030" version="1.1"><path d="M 1147.500 0.626 C 1146.400 0.842, 1143.025 1.510, 1140 2.109 C 1114.548 7.151, 1089.234 28.498, 1078.520 53.953 C 1073.338 66.265, 1071.817 74.290, 1071.262 92.250 L 1070.744 109 1098.742 109 L 1126.739 109 1127.263 95.750 C 1127.859 80.657, 1129.155 75.970, 1134.798 68.500 C 1137.549 64.859, 1140.440 62.549, 1145.436 60 L 1152.297 56.500 1259.149 56.232 L 1366 55.965 1366 27.982 L 1366 0 1257.750 0.116 C 1198.213 0.180, 1148.600 0.409, 1147.500 0.626 M 2831 181.398 L 2831 213.877 2915.250 214.284 C 3005.213 214.718, 3004.386 214.674, 3019 219.795 C 3049.339 230.424, 3073.858 256.803, 3081.958 287.530 C 3091.654 324.305, 3081.716 362.227, 3055.640 387.957 C 3043.493 399.943, 3029.888 407.983, 3013 413.155 L 3005.500 415.451 2918.500 415.976 L 2831.500 416.500 2831.236 449.250 L 2830.973 482 2914.736 481.980 C 2981.814 481.965, 3000.652 481.675, 3009.301 480.523 C 3043.157 476.017, 3074.789 460.659, 3099.777 436.594 C 3114.110 422.791, 3124.476 408.735, 3133.032 391.500 C 3140.911 375.630, 3144.930 364.033, 3148.195 347.755 C 3150.109 338.212, 3150.452 333.307, 3150.452 315.500 C 3150.452 292.259, 3148.863 281.073, 3142.960 262.745 C 3138.576 249.133, 3127.233 227.038, 3118.964 216 C 3093.879 182.515, 3060.820 161.198, 3019.500 151.862 C 3009.592 149.624, 3008.677 149.600, 2920.250 149.261 L 2831 148.919 2831 181.398 M 0 259.369 C 0 351.297, 0.220 368.015, 1.533 375.619 C 6.129 402.253, 17.856 424.933, 36.940 444.102 C 51.082 458.306, 66.228 467.764, 84.793 473.984 C 104.084 480.447, 75.593 480, 468 480 C 857.282 480, 831.115 480.383, 850.171 474.404 C 854.752 472.966, 862.944 469.517, 868.375 466.738 C 906.117 447.429, 931.553 409.872, 935.957 366.949 C 936.608 360.608, 937 318.289, 937 254.394 L 937 152 908.500 152 L 880 152 879.985 258.250 C 879.969 375.378, 880.229 370.204, 873.644 384.332 C 865.343 402.139, 850.668 414.977, 831 421.638 C 825.683 423.438, 813.766 423.509, 472 423.774 C 76.977 424.081, 110.424 424.691, 94.195 416.885 C 78.801 409.479, 65.506 394.086, 59.316 376.500 L 56.500 368.500 56.224 260.250 L 55.948 152 27.974 152 L 0 152 0 259.369 M 98.458 153.250 C 98.187 153.954, 98.086 166.673, 98.233 181.515 L 98.500 208.500 355 209 L 611.500 209.500 617.203 212.300 C 624.343 215.807, 631.231 223.329, 633.946 230.586 C 635.614 235.044, 636 238.415, 636 248.538 L 636 261 664.500 261 L 693 261 693 252.606 C 693 218.961, 683.547 194.496, 663.450 176.128 C 652.646 166.254, 639.334 158.951, 624.500 154.760 L 616.500 152.500 357.724 152.235 C 148.219 152.021, 98.855 152.214, 98.458 153.250 M 1070.994 277.250 C 1070.991 360.447, 1070.642 403.751, 1069.954 406.225 C 1068.408 411.791, 1063.105 418.070, 1057.520 420.945 L 1052.559 423.500 1013.279 423.794 L 974 424.087 974 452.044 L 974 480 1015.250 479.993 C 1052.651 479.987, 1057.257 479.804, 1064.614 478.041 C 1079.773 474.406, 1092.637 467.107, 1103.745 455.836 C 1114.815 444.604, 1121.398 432.807, 1125.014 417.726 C 1126.924 409.760, 1126.986 405.432, 1126.993 280.750 L 1127 152 1099 152 L 1071 152 1070.994 277.250 M 1169.247 316.250 L 1169.500 480.500 1197.250 480.766 L 1225 481.032 1225 316.516 L 1225 152 1196.997 152 L 1168.994 152 1169.247 316.250 M 1302.285 257.250 C 1302.721 373.916, 1302.430 368.560, 1309.487 389.660 C 1320.306 422.012, 1342.743 448.658, 1371.962 463.855 C 1383.335 469.770, 1395.225 474.038, 1407.500 476.612 C 1416.225 478.442, 1427.472 478.500, 1775.500 478.500 C 2115.371 478.500, 2134.964 478.405, 2143.210 476.725 C 2161.029 473.095, 2178.124 465.871, 2192.645 455.837 C 2200.508 450.404, 2214.199 437.672, 2219.807 430.578 L 2222.907 426.657 2233.340 436.706 C 2262.356 464.654, 2299.104 480.152, 2340.070 481.720 C 2379.800 483.241, 2415.506 472.504, 2446.206 449.804 C 2454.616 443.586, 2469.647 429.209, 2476.320 421 L 2479.978 416.500 2482.626 420 C 2484.082 421.925, 2490.524 428.703, 2496.942 435.063 C 2515.592 453.543, 2536.867 466.472, 2561.500 474.293 C 2579.753 480.089, 2589.747 481.500, 2612.500 481.498 C 2635.692 481.495, 2645.489 480.055, 2664.500 473.856 C 2689.858 465.587, 2709.852 453.190, 2729.544 433.526 C 2757.230 405.880, 2773.231 371.770, 2776.960 332.447 C 2777.583 325.876, 2777.999 287.619, 2777.999 236.750 L 2778 152 2745 152 L 2712 152 2711.987 240.250 C 2711.975 322.393, 2711.845 329.124, 2710.112 337.522 C 2702.601 373.913, 2674.865 403.370, 2638.837 413.221 C 2631.520 415.221, 2628.237 415.495, 2612 415.456 C 2596.205 415.419, 2592.375 415.098, 2585.802 413.260 C 2554.385 404.478, 2528.425 380.239, 2518.049 350 C 2513.020 335.343, 2513 334.916, 2513 240.412 L 2513 152 2480.035 152 L 2447.070 152 2446.737 243.250 L 2446.405 334.500 2444.130 342.500 C 2435.056 374.414, 2411.874 399.730, 2381.941 410.413 C 2368.590 415.178, 2359.886 416.347, 2342.321 415.735 C 2324.734 415.121, 2317.332 413.312, 2302.500 406 C 2283.080 396.426, 2267.574 380.920, 2258 361.500 C 2248.431 342.089, 2249 349.496, 2249 244.270 L 2249 152 2215.402 152 L 2181.805 152 2182.069 256.750 L 2182.333 361.500 2180.090 368 C 2172.363 390.400, 2154.334 407.119, 2133.139 411.538 C 2126.946 412.829, 2081.275 412.984, 1772.274 412.758 L 1418.500 412.500 1411.324 409.876 C 1401.986 406.461, 1391.344 399.322, 1384.962 392.192 C 1378.667 385.158, 1371.439 370.815, 1369.495 361.500 C 1368.271 355.632, 1368.032 338.126, 1368.017 253.250 L 1368 152 1334.946 152 L 1301.891 152 1302.285 257.250 M 1407.683 153.650 C 1407.308 154.026, 1407 166.855, 1407 182.159 L 1407 209.985 1663.750 210.242 L 1920.500 210.500 1925.136 212.807 C 1932.257 216.349, 1937.308 221.230, 1941.041 228.174 C 1944.373 234.374, 1944.449 234.784, 1944.832 248.750 L 1945.222 263 1973.221 263 L 2001.219 263 2000.739 244.750 C 2000.351 229.990, 1999.853 225.168, 1998.139 219.536 C 1988.098 186.553, 1963.766 163.564, 1930.024 155.180 C 1924.109 153.710, 1899.460 153.531, 1665.933 153.263 C 1524.272 153.100, 1408.059 153.274, 1407.683 153.650 M 0 667 L 0 687 71.250 687.006 C 150.590 687.012, 154.205 687.243, 171.413 693.394 C 208.608 706.688, 234.725 739.953, 239.140 779.660 C 244.354 826.549, 216.057 871.650, 171.413 887.606 C 154.205 893.757, 150.590 893.988, 71.250 893.994 L 0 894 0 914 L 0 934 75.250 933.996 C 156.615 933.992, 158.689 933.879, 177.500 928.454 C 186.948 925.729, 204.021 918.068, 212.500 912.749 C 240.662 895.085, 262.366 867.597, 272.835 836.336 C 278.486 819.464, 279.500 812.488, 279.500 790.500 C 279.500 768.512, 278.486 761.536, 272.835 744.664 C 262.353 713.363, 240.794 686.064, 212.500 668.260 C 204.063 662.952, 186.972 655.279, 177.500 652.546 C 158.689 647.121, 156.615 647.008, 75.250 647.004 L 0 647 0 667" stroke="none" fill="#2c5494" fill-rule="evenodd"/><path d="M 1595 571.336 L 1595 592 1700.157 592 L 1805.314 592 1796.561 600.750 C 1772.288 625.014, 1757.203 653.389, 1750.315 687.738 C 1748.689 695.845, 1748.535 708.853, 1748.251 861.750 L 1747.943 1027 1768.972 1027 L 1790 1027 1790.006 866.750 C 1790.012 690.853, 1789.841 696.223, 1796.022 677.776 C 1806.017 647.941, 1828.974 622.152, 1859 607.029 C 1864.225 604.397, 1872.884 600.842, 1878.241 599.129 C 1897.848 592.858, 1894.786 592.998, 2011.881 593.021 C 2070.521 593.032, 2125.142 593.471, 2133.259 593.997 C 2165.080 596.059, 2190.584 603.948, 2213.458 618.805 C 2228.672 628.688, 2247.310 650.367, 2254.469 666.510 C 2257.055 672.339, 2259.955 682.720, 2259.985 686.250 C 2259.999 687.899, 2256.252 688.001, 2195.250 688.010 C 2159.637 688.015, 2123.975 688.481, 2116 689.044 C 2088.142 691.012, 2066.610 695.120, 2042.806 703.007 C 1992.026 719.831, 1955.833 749.342, 1935.499 790.500 C 1924 813.774, 1919.349 835.328, 1920.286 861 C 1920.577 868.975, 1921.551 879.550, 1922.451 884.500 C 1925.862 903.272, 1935.491 926.968, 1946.013 942.485 C 1952.948 952.713, 1956.054 956.442, 1966.298 966.839 C 1995.472 996.449, 2035.887 1015.988, 2083.500 1023.504 C 2097.670 1025.740, 2127.893 1026.540, 2143.580 1025.094 C 2168.497 1022.798, 2193.859 1016.184, 2214.253 1006.666 C 2231.286 998.715, 2249.513 987.399, 2257.750 979.661 L 2261 976.608 2261 1000.804 L 2261 1025 2282.154 1025 L 2303.308 1025 2302.599 855.250 C 2301.917 691.888, 2301.816 685.132, 2299.920 675.722 C 2286.820 610.688, 2226.275 561.941, 2147.500 553.001 C 2141.738 552.347, 2040.742 551.745, 1866.750 551.326 L 1595 550.671 1595 571.336 M 2339 788.520 L 2339 1026.041 2359.750 1025.770 L 2380.500 1025.500 2380.757 956.250 L 2381.014 887 2423.333 887 L 2465.652 887 2553.260 956.500 L 2640.868 1026 2673.434 1026 C 2691.345 1026, 2706 1025.618, 2706 1025.151 C 2706 1024.683, 2667.192 993.521, 2619.760 955.901 L 2533.519 887.500 2550.650 886.815 C 2569.289 886.070, 2582.777 884.141, 2596 880.331 C 2642.096 867.048, 2679.119 836.676, 2699.969 795.042 C 2720.333 754.376, 2723.937 709.879, 2710.299 667.500 C 2690.481 605.919, 2638.868 562.220, 2574.490 552.517 C 2566.046 551.245, 2547.047 551.011, 2451.750 551.006 L 2339 551 2339 788.520 M 489 573 L 489 594 561.250 594.020 C 639.516 594.041, 645.779 594.374, 664.705 599.530 C 700.622 609.315, 732.139 633.199, 747.479 662.257 C 751.691 670.236, 755 679.441, 755 683.182 C 755 684.920, 752.190 685.001, 690.750 685.015 C 655.413 685.023, 620.027 685.472, 612.116 686.012 C 560.484 689.537, 515.861 703.619, 483 726.758 C 470.103 735.839, 451.077 755.015, 443.118 766.953 C 422.113 798.460, 413.750 832.983, 418.043 870.459 C 424.608 927.768, 458.772 974.827, 513.949 1002.563 C 540.912 1016.117, 569.295 1023.537, 603.450 1025.963 C 633.896 1028.125, 669.815 1022.886, 696.337 1012.413 C 715.926 1004.678, 740.882 990.306, 751.856 980.440 L 757 975.815 757 1001.428 L 757 1027.041 777.750 1026.770 L 798.500 1026.500 798.500 858.500 C 798.500 703.419, 798.367 689.797, 796.770 681.364 C 789.201 641.400, 765.452 606.871, 729.321 583.302 C 704.608 567.181, 673.981 556.619, 641.500 553.015 C 636.354 552.444, 601.775 552.013, 560.750 552.008 L 489 552 489 573 M 906 573 L 906 594 978.250 594.020 C 1056.516 594.041, 1062.779 594.374, 1081.705 599.530 C 1117.622 609.315, 1149.139 633.199, 1164.479 662.257 C 1168.691 670.236, 1172 679.441, 1172 683.182 C 1172 684.920, 1169.190 685.001, 1107.750 685.015 C 1072.412 685.023, 1037.027 685.472, 1029.116 686.012 C 977.484 689.537, 932.861 703.619, 900 726.758 C 887.103 735.839, 868.077 755.015, 860.118 766.953 C 839.113 798.460, 830.750 832.983, 835.043 870.459 C 841.608 927.768, 875.772 974.827, 930.949 1002.563 C 957.912 1016.117, 986.295 1023.537, 1020.450 1025.963 C 1050.896 1028.125, 1086.815 1022.886, 1113.337 1012.413 C 1132.926 1004.678, 1157.882 990.306, 1168.856 980.440 L 1174 975.815 1174 1001.428 L 1174 1027.041 1194.750 1026.770 L 1215.500 1026.500 1215.500 858.500 C 1215.500 703.419, 1215.367 689.797, 1213.770 681.364 C 1206.201 641.400, 1182.452 606.871, 1146.321 583.302 C 1121.608 567.181, 1090.981 556.619, 1058.500 553.015 C 1053.354 552.444, 1018.775 552.013, 977.750 552.008 L 906 552 906 573 M 1346.500 554.033 C 1297.297 564.377, 1260.064 602.552, 1251.548 651.385 C 1249.410 663.644, 1249.353 715.027, 1251.463 727.129 C 1258.934 769.971, 1290.336 806.713, 1331.204 820.433 C 1348.810 826.342, 1347.308 826.229, 1417.500 826.955 C 1489.940 827.704, 1486.860 827.414, 1502.793 835 C 1525.254 845.695, 1540.308 864.404, 1546.166 888.903 C 1547.868 896.023, 1548.137 899.647, 1547.731 910 C 1546.873 931.857, 1540.222 946.984, 1524.603 962.603 C 1514.478 972.728, 1505.741 978.213, 1492.500 982.755 L 1484.500 985.500 1369.250 985.774 L 1254 986.049 1254 1006.548 L 1254 1027.048 1371.250 1026.772 L 1488.500 1026.495 1498.074 1023.850 C 1542.554 1011.560, 1573.851 980.242, 1585.793 936.074 C 1588.172 927.277, 1588.382 924.878, 1588.384 906.500 C 1588.387 887.895, 1588.201 885.824, 1585.712 876.809 C 1573.253 831.672, 1539.396 799.079, 1493.880 788.406 C 1487.456 786.900, 1478.082 786.591, 1421.500 786.026 C 1357.903 785.389, 1356.339 785.327, 1349.027 783.123 C 1320.830 774.621, 1299.523 752.377, 1292.954 724.584 C 1291.004 716.338, 1290.874 713.448, 1291.220 686.084 C 1291.587 657.077, 1291.647 656.344, 1294.292 648.500 C 1298.722 635.362, 1304.235 626.560, 1314.397 616.397 C 1324.522 606.272, 1333.259 600.787, 1346.500 596.245 L 1354.500 593.500 1457.750 593.223 L 1561 592.946 1561 572.473 L 1561 552 1458.250 552.070 C 1361.445 552.137, 1354.979 552.250, 1346.500 554.033 M 2753 576 L 2753 597 2863.482 597 L 2973.963 597 2963.106 607.750 C 2938.022 632.584, 2922.778 661.313, 2916.280 696 C 2914.620 704.860, 2914.500 716.406, 2914.500 867.500 L 2914.500 1029.500 2935.250 1029.770 L 2956 1030.041 2956.031 872.270 C 2956.050 776.339, 2956.442 711.560, 2957.032 707 C 2960.379 681.125, 2972.136 657.789, 2991.487 638.613 C 3011.935 618.350, 3034.142 606.489, 3064.154 599.800 C 3072.493 597.942, 3077.676 597.669, 3112.250 597.269 L 3151 596.821 3151 575.910 L 3151 555 2952 555 L 2753 555 2753 576 M 0 576.949 L 0 598 78.039 598 C 126.322 598, 159.782 598.405, 165.789 599.062 C 246.728 607.910, 314.219 666.691, 333.354 745 C 361.382 859.709, 282.866 972.139, 165.789 984.938 C 159.782 985.595, 126.322 986, 78.039 986 L 0 986 0 1007.051 L 0 1028.101 87.250 1027.717 C 184.280 1027.290, 179.099 1027.622, 207.598 1020.016 C 271.689 1002.912, 327.362 956.885, 356.999 896.500 C 380.766 848.075, 387.280 792.376, 375.398 739.183 C 356.673 655.360, 290.293 586.053, 207.598 563.984 C 179.099 556.378, 184.280 556.710, 87.250 556.283 L 0 555.899 0 576.949 M 2381 718.500 L 2381 844 2472.869 844 C 2573.557 844, 2573.196 844.018, 2591.218 837.980 C 2626.841 826.046, 2656.696 796.729, 2669.373 761.234 C 2678.947 734.431, 2678.779 701.840, 2668.929 674.617 C 2656.537 640.369, 2626.018 611.014, 2590.400 599.081 C 2572.180 592.976, 2572.642 593, 2472.369 593 L 2381 593 2381 718.500 M 602.500 728.535 C 536.269 735.777, 487.472 764.521, 466.948 808.381 C 460.191 822.821, 458.764 830.084, 458.906 849.295 C 459.189 887.336, 469.641 913.809, 493.940 938.030 C 525.659 969.646, 581.284 988.338, 630.961 984.073 C 695.029 978.573, 739.771 947.166, 752.465 898.783 C 756.590 883.061, 757 874.005, 757 798.539 L 757 727 685.750 727.111 C 634.392 727.191, 611.150 727.589, 602.500 728.535 M 1019.500 728.535 C 953.269 735.777, 904.472 764.521, 883.948 808.381 C 877.191 822.821, 875.764 830.084, 875.906 849.295 C 876.189 887.336, 886.641 913.809, 910.940 938.030 C 942.659 969.646, 998.284 988.338, 1047.961 984.073 C 1112.029 978.573, 1156.771 947.166, 1169.465 898.783 C 1173.590 883.061, 1174 874.005, 1174 798.539 L 1174 727 1102.750 727.111 C 1051.392 727.191, 1028.150 727.589, 1019.500 728.535 M 2103 731.493 C 2078.684 734.447, 2053.223 741.489, 2034.687 750.385 C 2014.363 760.139, 1993.833 776.519, 1982.527 792 C 1976.444 800.329, 1969.929 813.313, 1966.707 823.524 C 1959.026 847.869, 1960.814 878.617, 1971.319 902.859 C 1982.503 928.666, 2006.051 951.842, 2035.543 966.067 C 2084.953 989.900, 2148.982 991.257, 2195.722 969.463 C 2229.652 953.642, 2250.506 928.656, 2258.290 894.500 C 2260.243 885.933, 2260.360 881.763, 2260.736 807.750 L 2261.132 730 2187.316 730.108 C 2134.226 730.186, 2110.552 730.575, 2103 731.493" stroke="none" fill="#d4a43c" fill-rule="evenodd"/></svg>